<svg width="272" height="80" viewBox="0 0 272 80" fill="none" xmlns="http://www.w3.org/2000/svg">
<path fill-rule="evenodd" clip-rule="evenodd" d="M2.03837 79.2045C1.50389 78.9063 1.50508 77.645 1.50987 72.558C1.51036 72.0392 1.51089 71.4806 1.51089 70.8792V62.7471H4.35666L6.90905 66.2665C8.31286 68.2022 9.577 69.7858 9.71823 69.7858C9.85924 69.7858 11.116 68.2272 12.5107 66.3223L15.0468 62.8588L18.0211 62.7268V70.8689C18.0211 71.5509 18.0219 72.178 18.0227 72.7545V72.7552C18.0294 77.5951 18.0311 78.8738 17.4785 79.1946C17.28 79.3098 17.0101 79.3015 16.6432 79.2903C16.5216 79.2865 16.3892 79.2824 16.2453 79.2824H16.2083C15.7619 79.2826 15.4467 79.2826 15.2225 79.1396C14.684 78.7961 14.6705 77.627 14.6245 73.6494L14.6229 73.5112L14.5628 68.334L12.3764 71.3502C12.262 71.5079 12.1524 71.6597 12.0477 71.8047C10.8599 73.4489 10.2684 74.2677 9.68486 74.2621C9.10588 74.2565 8.53471 73.4394 7.39688 71.8116C7.29587 71.6671 7.19007 71.5157 7.07973 71.3585C5.91888 69.704 4.89391 68.3466 4.80177 68.3419C4.70962 68.3372 4.63444 70.7359 4.63444 73.6723C4.63444 73.9795 4.63468 74.2699 4.63491 74.5444C4.63767 77.8729 4.6385 78.8709 4.18448 79.1653C3.99005 79.2914 3.71221 79.2884 3.31539 79.2841C3.23898 79.2833 3.15815 79.2824 3.07266 79.2824C2.96094 79.2824 2.85718 79.2853 2.7608 79.2879C2.44905 79.2964 2.21459 79.3028 2.03837 79.2045ZM90.5327 79.1308C90.0995 78.7287 90.6648 77.2473 92.7208 71.86L92.7216 71.858C92.8491 71.5241 92.9822 71.1753 93.1212 70.8108L96.2025 62.7288L99.099 62.8588L102.161 70.9004C102.31 71.2918 102.453 71.6651 102.588 72.0208C104.583 77.2528 105.142 78.7197 104.709 79.1268C104.54 79.2854 104.221 79.2831 103.777 79.28C103.723 79.2796 103.667 79.2792 103.61 79.2791C103.585 79.279 103.559 79.279 103.533 79.2791C102.223 79.2829 102.053 79.1222 101.347 77.2099L100.953 76.1427L94.2396 76.2659L93.7269 77.5918C93.1241 79.1517 92.971 79.2755 91.6475 79.2755C91.5719 79.2755 91.4993 79.2762 91.4299 79.2768C91.0051 79.2806 90.6971 79.2833 90.5327 79.1308ZM177.675 79.1468C177.362 79.0266 177.322 78.0883 177.322 70.8792V62.7471H179.999V76.1541H182.77L182.983 76.1541C185.041 76.1537 185.801 76.1536 186.082 76.5213C186.247 76.737 186.247 77.0794 186.246 77.6226L186.246 77.7183C186.246 78.6912 186.159 79.0447 185.893 79.1468C185.433 79.3236 178.135 79.3236 177.675 79.1468ZM258.664 79.1468C258.351 79.0266 258.311 78.0883 258.311 70.8792V62.7471H261.435V76.1541H264.651L264.995 76.1541C267.319 76.1532 268.135 76.1529 268.421 76.5428C268.576 76.7539 268.575 77.0794 268.574 77.5813C268.574 77.6256 268.574 77.6712 268.574 77.7183C268.574 78.6912 268.487 79.0447 268.221 79.1468C267.761 79.3238 259.124 79.3238 258.664 79.1468ZM99.8401 73.1376L98.8116 70.4168C98.2458 68.9204 97.7233 67.6371 97.6501 67.5649C97.5771 67.493 97.0475 68.7063 96.4732 70.2615C96.3636 70.5582 96.2627 70.826 96.1717 71.0676C95.7137 72.2833 95.5051 72.8371 95.694 73.0773C95.852 73.2783 96.2882 73.2598 97.0892 73.2259C97.2795 73.2179 97.4904 73.209 97.723 73.2019L99.8401 73.1376Z" fill="white"/>
<path d="M218.541 64.9374C218.092 65.5275 217.577 66.2944 217.397 66.6412C217.218 66.9882 216.662 67.5048 216.162 67.7891C214.935 68.4871 213.475 69.7219 213.47 70.0656C213.466 70.3612 215.889 72.2442 216.541 72.4522C216.752 72.5193 217.151 73.0028 217.428 73.5264C217.704 74.0499 218.332 74.9307 218.822 75.4838L219.713 76.4893L220.604 75.4838C221.094 74.9307 221.721 74.0499 221.998 73.5264C222.275 73.0028 222.674 72.5193 222.885 72.4522C223.537 72.2442 225.96 70.3612 225.956 70.0656C225.951 69.7145 224.618 68.6038 223.227 67.7922C222.644 67.4521 222.165 67.0575 222.163 66.9156C222.156 66.4448 220.091 63.8644 219.722 63.8644C219.522 63.8644 218.991 64.3472 218.541 64.9374Z" fill="white"/>
<path d="M140.228 64.5325C139.797 65.0368 139.216 65.8808 138.936 66.4081C138.595 67.0521 138.114 67.5341 137.471 67.8757C136.944 68.1555 136.102 68.7376 135.598 69.1691L134.683 69.9538L135.197 70.516C135.48 70.8253 136.295 71.4601 137.008 71.9267C137.879 72.4963 138.583 73.2019 139.152 74.0736C139.618 74.7877 140.254 75.6065 140.566 75.8932L141.134 76.414L141.877 75.5964C142.286 75.1468 142.886 74.3223 143.211 73.7643C143.583 73.128 144.18 72.5291 144.816 72.1575C145.373 71.8317 146.196 71.2302 146.645 70.8211L147.462 70.077L146.941 69.5085C146.655 69.1959 145.838 68.5584 145.125 68.0918C144.254 67.5223 143.55 66.8166 142.981 65.9449C142.515 65.2308 141.881 64.4145 141.572 64.1312L141.011 63.6159L140.228 64.5325Z" fill="white"/>
<path d="M49.9172 64.7946C49.3989 65.4504 48.8248 66.3013 48.6414 66.6854C48.458 67.0693 47.9944 67.5337 47.6111 67.7173C47.2276 67.901 46.3773 68.4764 45.7216 68.9961L44.5293 69.9411L45.1638 70.6081C45.5127 70.9748 46.3733 71.6315 47.0761 72.0672C48.0031 72.6422 48.5321 73.1735 49.0044 74.0041C49.3623 74.6336 49.9683 75.4451 50.3509 75.8073L51.0465 76.4663L51.7179 75.6956C52.0871 75.272 52.6779 74.4369 53.0307 73.8403C53.4539 73.1244 54.0402 72.5371 54.7551 72.1133C55.3508 71.76 56.1837 71.169 56.606 70.7998L57.3737 70.1288L56.8291 69.5344C56.5295 69.2075 55.7011 68.5584 54.988 68.0918C54.1177 67.5223 53.4131 66.8166 52.8444 65.9449C52.3785 65.2308 51.7413 64.4114 51.4285 64.1242L50.8596 63.6018L49.9172 64.7946Z" fill="white"/>
<path d="M255.362 8.21309C258.094 4.61867 261.543 2.66594 265.987 2.19647C268.684 1.91157 271.475 1.93347 271.475 2.23937C271.475 2.49411 252.411 39.4774 249.996 43.9084C241.085 60.2563 217.818 53.3561 220.63 35.1994C221.162 31.7672 225.423 21.5973 233.184 5.23964C234.846 1.73728 234.567 1.87626 237.177 3.25339C243.216 6.44001 245.138 10.9986 242.757 16.4928C242.251 17.6604 240.738 21.0289 239.394 23.9784C234.078 35.6477 233.359 38.4955 235.409 39.7482C236.664 40.514 237.715 40.2159 239.144 38.6886C240.462 37.2811 240.632 36.9656 247.569 23.0627C252.08 14.023 254.61 9.20208 255.362 8.21309Z" fill="white"/>
<path fill-rule="evenodd" clip-rule="evenodd" d="M87.0738 0.430317C77.2947 1.85325 70.5648 8.23119 71.2147 15.4596C71.401 17.5308 71.4338 17.5497 72.7557 16.3514C82.0217 7.95143 98.9857 8.11209 103.958 16.6466L104.333 17.2888L97.2648 17.2818C89.9845 17.2747 88.4404 17.3967 84.0745 18.3233C70.057 21.2983 63.5537 31.163 68.7792 41.5242C74.8442 53.5501 91.3814 55.7729 105.62 46.4761L107.656 45.1468L107.795 46.3304C108.814 55.0094 121.13 53.9179 122.289 45.0458L122.426 43.9915L121.483 43.7444C118.105 42.8584 117.905 42.2397 117.723 32.1343C117.487 18.9765 117.204 16.7683 115.24 12.8059C110.911 4.07099 98.7561 -1.26969 87.0738 0.430317ZM84.6642 41.1157C94.8581 43.9138 105.631 37.9248 107.15 28.615L107.305 27.6653L98.1932 27.7029C90.7061 27.7338 88.8805 27.7411 87.078 27.9492C86.4942 28.0166 85.9129 28.105 85.1426 28.2222C74.9556 29.7709 74.6367 38.3633 84.6642 41.1157Z" fill="white"/>
<path fill-rule="evenodd" clip-rule="evenodd" d="M13.3358 1.84856C9.59313 2.00832 6.50596 2.15088 6.47517 2.16541C6.44438 2.18016 6.4205 2.77007 6.42207 3.47684C6.43278 8.65754 9.94833 11.8947 16.1818 12.4638C17.2008 12.5567 18.0854 12.6839 18.1476 12.7465C18.2101 12.809 14.152 21.3446 9.12973 31.7145L-0.00195312 50.569L19.4401 50.6919C38.1788 50.8104 42.2006 50.8451 45.7338 49.5463C46.7292 49.1804 47.6859 48.7086 48.9219 48.103C61.627 41.8784 66.893 28.7848 61.4201 17.0282C55.6148 4.55789 43.0209 0.582263 13.3358 1.84856ZM52.1238 22.7977C49.6789 17.9665 41.5468 13.5314 34.1966 13.0209C33.215 12.9525 32.1608 12.8651 31.854 12.8267C31.6071 12.7956 31.433 12.7087 31.2572 12.7048C30.3499 12.6844 29.3933 14.8705 18.1309 38.3049L16.5078 41.6822L18.659 41.8247C22.0184 42.0475 34.7274 42.0059 36.0931 41.7677C48.7249 39.5643 56.1576 30.7688 52.1238 22.7977Z" fill="white"/>
<path fill-rule="evenodd" clip-rule="evenodd" d="M126.453 51.6362L127.959 51.4827C132.61 51.0083 136.016 48.7329 137.923 44.8254C138.29 44.0742 138.572 43.504 138.788 42.9098C139.519 40.9017 139.495 38.6187 139.435 28.1462L139.366 16.0021L140.328 16.163C143.169 16.6381 148.707 18.7133 152.111 20.5784C154.619 21.9526 162.188 26.5957 162.8 27.1349C162.85 27.1793 162.529 27.9956 162.085 28.9488C157.228 39.3913 159.658 47.9593 168.656 52.1184C171.587 53.473 172.634 53.323 176.323 51.0199C183.295 46.6678 184.928 39.0164 180.9 29.5647C180.439 28.4818 180.149 27.9788 180.243 27.5635C180.357 27.0637 181.028 26.6911 182.629 25.5879C188.04 21.8603 195.179 18.3213 202.593 15.6909L203.434 15.3926L203.374 28.0649C203.32 39.5985 203.35 40.8677 203.709 42.1896C205.193 47.6595 209.015 50.9093 214.637 51.4827L216.143 51.6362V1.77325L215.418 1.86353C215.019 1.91313 213.689 2.06575 212.462 2.20273C200.685 3.51684 186.881 8.62961 174.032 16.4361L171.301 18.0959L168.678 16.582C153.403 7.7653 139.687 2.76537 128.293 1.86062L126.453 1.71449V51.6362ZM171.404 44.2007C174.466 44.2007 175.078 38.5965 172.553 33.6771C171.366 31.3634 171.341 31.3581 170.322 33.1917C167.479 38.3081 168.059 44.2007 171.404 44.2007Z" fill="white"/>
</svg>
