<svg width="35" height="30" viewBox="0 0 35 30" fill="none" xmlns="http://www.w3.org/2000/svg">
<path fill-rule="evenodd" clip-rule="evenodd" d="M3.00087 12.78C12.1256 8.67157 18.2102 5.96304 21.2547 4.65442C29.9472 0.918026 31.7534 0.268975 32.9307 0.247543C33.1896 0.242829 33.7686 0.309145 34.1436 0.623621C34.4603 0.889158 34.5474 1.24786 34.5891 1.49962C34.6308 1.75138 34.6827 2.32489 34.6414 2.77302C34.1704 7.88785 32.1322 20.3002 31.0952 26.0289C30.6565 28.4529 29.7925 29.2657 28.9561 29.3452C27.1384 29.5181 25.7582 28.1038 23.9976 26.9112C21.2428 25.045 19.6865 23.8833 17.0124 22.0622C13.922 19.9576 15.9254 18.8009 17.6866 16.9105C18.1475 16.4158 26.1562 8.88763 26.3112 8.20471C26.3306 8.1193 26.3486 7.80093 26.1656 7.63282C25.9826 7.46471 25.7125 7.5222 25.5175 7.56792C25.2412 7.63273 20.8403 10.6388 12.3148 16.5862C11.0656 17.4727 9.93409 17.9046 8.92033 17.882C7.80273 17.857 5.65293 17.2289 4.05477 16.6921C2.09457 16.0336 0.536637 15.6854 0.672297 14.5671C0.742958 13.9846 1.51915 13.3889 3.00087 12.78Z" fill="#EFEFEF"/>
</svg>
