<svg width="35" height="37" viewBox="0 0 35 37" fill="none" xmlns="http://www.w3.org/2000/svg">
<path fill-rule="evenodd" clip-rule="evenodd" d="M3.08722 27.1829C1.58555 24.5376 0.800579 21.5397 0.800579 18.4359C0.800579 8.80723 8.41135 0.977295 17.7286 0.977295C22.2677 0.977295 26.4997 2.81133 29.7078 6.09144C32.8818 9.40682 34.6565 13.7803 34.6565 18.4712C34.6565 28.0999 27.0458 35.9299 17.7286 35.9299C14.8959 35.9299 12.0973 35.2244 9.63999 33.8137L0.664062 36.2473L3.08722 27.1829ZM12.3502 10.1635C12.6597 10.1766 13.0021 10.1916 13.3275 10.9389C13.5498 11.4498 13.9239 12.4023 14.222 13.1614C14.4417 13.7207 14.6202 14.175 14.6662 14.2702C14.7748 14.4947 14.8471 14.7567 14.7024 15.0564C14.6807 15.1012 14.6607 15.1435 14.6415 15.1839C14.5327 15.4134 14.4528 15.582 14.2686 15.8048C14.1964 15.892 14.1217 15.9858 14.047 16.0796C13.8971 16.2681 13.7472 16.4565 13.617 16.5908C13.3992 16.8145 13.173 17.0576 13.4263 17.5065C13.6797 17.9558 14.5513 19.4248 15.8423 20.6143C17.2292 21.8922 18.434 22.4327 19.0458 22.7072C19.166 22.7611 19.2633 22.8048 19.3346 22.8417C19.769 23.0661 20.0223 23.0288 20.2756 22.7288C20.529 22.4295 21.3608 21.4189 21.6504 20.9701C21.9399 20.5208 22.2295 20.5956 22.6276 20.7452C23.0257 20.8948 25.1608 21.9807 25.5951 22.2051C25.6798 22.2489 25.759 22.2884 25.8323 22.325C26.1354 22.4761 26.3401 22.5782 26.4275 22.7288C26.5361 22.9166 26.5361 23.8147 26.1742 24.8625C25.8123 25.9105 24.0392 26.9211 23.2429 26.996C23.1663 27.0032 23.0901 27.0124 23.0118 27.022C22.2759 27.1114 21.3471 27.2242 18.0316 25.8732C13.952 24.2105 11.2621 20.0904 10.7063 19.2392C10.6608 19.1694 10.6296 19.1216 10.6131 19.0989L10.6083 19.0922C10.3741 18.7688 8.83982 16.6499 8.83982 14.4573C8.83982 12.3905 9.82289 11.3071 10.2752 10.8086C10.3061 10.7746 10.3345 10.7432 10.36 10.7145C10.7578 10.2654 11.2284 10.153 11.5179 10.153L11.5655 10.153C11.839 10.153 12.111 10.1529 12.3502 10.1635Z" fill="#EFEFEF"/>
</svg>
