<svg width="35" height="28" viewBox="0 0 35 28" fill="none" xmlns="http://www.w3.org/2000/svg">
<path d="M0.664281 9.00637C0.664062 9.22552 0.664062 9.45094 0.664062 9.68286V18.4651C0.664062 22.6051 0.664062 24.6751 1.90858 25.9612C3.1531 27.2473 5.15613 27.2473 9.16218 27.2473H26.1584C30.1645 27.2473 32.1675 27.2473 33.412 25.9612C34.6565 24.6751 34.6565 22.6051 34.6565 18.4651V9.68286C34.6565 9.45094 34.6565 9.22552 34.6563 9.00637L20.0356 16.5611C18.5403 17.3338 16.7803 17.3338 15.285 16.5611L0.664281 9.00637Z" fill="#EFEFEF"/>
<path d="M0.694575 6.56731L16.2351 14.5974C17.1323 15.0609 18.1883 15.0609 19.0855 14.5974L34.626 6.56732C34.5515 4.40633 34.295 3.09926 33.412 2.18676C32.1675 0.900635 30.1645 0.900635 26.1584 0.900635H9.16218C5.15613 0.900635 3.1531 0.900635 1.90858 2.18676C1.02561 3.09926 0.769095 4.40633 0.694575 6.56731Z" fill="#EFEFEF"/>
</svg>
