<svg width="1358" height="439" viewBox="0 0 1358 439" fill="none" xmlns="http://www.w3.org/2000/svg">
<path d="M1098.49 404.345H770.305V405.728C770.305 421.64 783.455 434.537 799.706 434.537H1127.84" fill="white"/>
<path d="M799.683 438.3H1127.84V430.752H799.683C786.375 430.752 775.397 420.801 774.175 408.108H1098.49V400.56H766.525V405.705C766.525 423.657 781.395 438.277 799.683 438.277V438.3Z" fill="#89B13B"/>
<path d="M1211.81 400.56V424.723C1211.81 432.203 1205.72 438.3 1198.26 438.3H1127.84C1109.58 438.3 1094.71 423.68 1094.71 405.705V400.537H1211.81V400.56Z" fill="#89B13B"/>
<path d="M839.992 404.323L1208.06 404.323V200.889C1208.06 187.765 1197.42 177.089 1184.29 177.089L863.757 177.089C850.652 177.089 839.992 187.743 839.992 200.889V404.323Z" fill="white"/>
<path d="M836.235 408.108H1211.81V200.912C1211.81 185.703 1199.45 173.349 1184.29 173.349H863.757C848.57 173.349 836.235 185.725 836.235 200.912V408.108ZM1204.28 400.56H843.749V200.912C843.749 189.873 852.712 180.897 863.734 180.897H1184.29C1195.31 180.897 1204.28 189.873 1204.28 200.912V400.56Z" fill="#89B13B"/>
<path d="M850.787 408.108H1197.26V201.229C1197.26 193.749 1191.19 187.652 1183.7 187.652H864.299C856.83 187.652 850.741 193.727 850.741 201.229V408.108H850.787ZM1189.74 400.56H858.324V201.229C858.324 197.897 861.017 195.2 864.344 195.2H1183.72C1187.05 195.2 1189.74 197.897 1189.74 201.229V400.56Z" fill="#89B13B"/>
<path d="M907.26 416.585H969.796C976.133 416.585 981.294 411.417 981.294 405.071V404.345H895.785V405.071C895.785 411.417 900.946 416.585 907.283 416.585H907.26Z" fill="#89B13B"/>
<path d="M943.062 293.687L969.113 231.965H984.752V293.687H991.52V306.743H984.752V323.312H970.674V306.743H943.039V293.687H943.062ZM970.697 293.687V259.369L956.234 293.687H970.697Z" fill="#89B13B"/>
<path d="M1000.14 253.884C1000.14 239.264 1007.84 230.923 1021.9 230.923C1035.95 230.923 1043.65 239.264 1043.65 253.884V301.393C1043.65 316.013 1035.95 324.355 1021.9 324.355C1007.84 324.355 1000.14 316.013 1000.14 301.393V253.884ZM1014.47 302.277C1014.47 308.805 1017.35 311.276 1021.9 311.276C1026.44 311.276 1029.32 308.805 1029.32 302.277V252.955C1029.32 246.427 1026.44 243.956 1021.9 243.956C1017.35 243.956 1014.47 246.427 1014.47 252.955V302.277Z" fill="#89B13B"/>
<path d="M1052.79 293.687L1078.84 231.965H1094.48V293.687H1101.25V306.743H1094.48V323.312H1080.4V306.743H1052.77V293.687H1052.79ZM1080.4 293.687V259.369L1065.94 293.687H1080.4Z" fill="#89B13B"/>
<path d="M950.852 346.137V348.313C950.852 350.988 949.562 352.439 946.937 352.439H945.692V358.717H943.066V341.989H946.937C949.562 341.989 950.852 343.44 950.852 346.115V346.137ZM945.692 344.392V350.059H946.937C947.774 350.059 948.227 349.673 948.227 348.472V345.956C948.227 344.755 947.774 344.369 946.937 344.369H945.692V344.392Z" fill="#89B13B"/>
<path d="M960.381 358.74H957.732L957.28 355.703H954.066L953.613 358.74H951.191L953.862 342.012H957.71L960.381 358.74ZM954.383 353.436H956.918L955.65 344.981L954.383 353.436Z" fill="#89B13B"/>
<path d="M965.54 349.424H969.206V354.728C969.206 357.403 967.871 358.944 965.291 358.944C962.71 358.944 961.375 357.425 961.375 354.728V346.024C961.375 343.349 962.71 341.831 965.291 341.831C967.871 341.831 969.206 343.349 969.206 346.024V347.656H966.716V345.865C966.716 344.664 966.196 344.211 965.358 344.211C964.521 344.211 964 344.664 964 345.865V354.887C964 356.088 964.521 356.519 965.358 356.519C966.196 356.519 966.716 356.088 966.716 354.887V351.804H965.517V349.424H965.54Z" fill="#89B13B"/>
<path d="M973.532 349.061H977.13V351.441H973.532V356.337H978.058V358.717H970.906V341.989H978.058V344.369H973.532V349.039V349.061Z" fill="#89B13B"/>
<path d="M983.398 342.012H987.54C990.166 342.012 991.456 343.463 991.456 346.137V354.592C991.456 357.267 990.166 358.717 987.54 358.717H983.398V341.989V342.012ZM986.024 344.392V356.337H987.495C988.332 356.337 988.83 355.907 988.83 354.705V346.001C988.83 344.8 988.332 344.369 987.495 344.369H986.024V344.392Z" fill="#89B13B"/>
<path d="M992.906 346.024C992.906 343.349 994.31 341.831 996.89 341.831C999.47 341.831 1000.87 343.349 1000.87 346.024V354.728C1000.87 357.403 999.47 358.944 996.89 358.944C994.31 358.944 992.906 357.425 992.906 354.728V346.024ZM995.532 354.887C995.532 356.088 996.052 356.541 996.89 356.541C997.727 356.541 998.248 356.088 998.248 354.887V345.865C998.248 344.664 997.727 344.211 996.89 344.211C996.052 344.211 995.532 344.664 995.532 345.865V354.887Z" fill="#89B13B"/>
<path d="M1005.2 349.061H1008.79V351.441H1005.2V356.337H1009.72V358.717H1002.57V341.989H1009.72V344.369H1005.2V349.039V349.061Z" fill="#89B13B"/>
<path d="M1014.9 341.808C1017.46 341.808 1018.77 343.327 1018.77 346.001V346.523H1016.28V345.843C1016.28 344.641 1015.81 344.188 1014.97 344.188C1014.13 344.188 1013.66 344.641 1013.66 345.843C1013.66 349.288 1018.8 349.923 1018.8 354.705C1018.8 357.38 1017.46 358.921 1014.88 358.921C1012.3 358.921 1010.96 357.403 1010.96 354.705V353.685H1013.45V354.887C1013.45 356.088 1013.98 356.519 1014.81 356.519C1015.65 356.519 1016.17 356.088 1016.17 354.887C1016.17 351.441 1011.03 350.807 1011.03 346.024C1011.03 343.349 1012.35 341.831 1014.9 341.831V341.808Z" fill="#89B13B"/>
<path d="M1026.33 346.613V358.717H1023.98V341.989H1027.26L1029.96 352.008V341.989H1032.29V358.717H1029.59L1026.33 346.613Z" fill="#89B13B"/>
<path d="M1033.98 346.024C1033.98 343.349 1035.39 341.831 1037.97 341.831C1040.55 341.831 1041.95 343.349 1041.95 346.024V354.728C1041.95 357.403 1040.55 358.944 1037.97 358.944C1035.39 358.944 1033.98 357.425 1033.98 354.728V346.024ZM1036.59 354.887C1036.59 356.088 1037.11 356.541 1037.95 356.541C1038.78 356.541 1039.3 356.088 1039.3 354.887V345.865C1039.3 344.664 1038.78 344.211 1037.95 344.211C1037.11 344.211 1036.59 344.664 1036.59 345.865V354.887Z" fill="#89B13B"/>
<path d="M1042.88 342.012H1050.98V344.392H1048.24V358.74H1045.62V344.392H1042.88V342.012Z" fill="#89B13B"/>
<path d="M1058.47 349.447H1061.87V351.827H1058.47V358.74H1055.85V342.012H1062.8V344.392H1058.47V349.424V349.447Z" fill="#89B13B"/>
<path d="M1063.84 346.024C1063.84 343.349 1065.24 341.831 1067.82 341.831C1070.4 341.831 1071.8 343.349 1071.8 346.024V354.728C1071.8 357.403 1070.4 358.944 1067.82 358.944C1065.24 358.944 1063.84 357.425 1063.84 354.728V346.024ZM1066.46 354.887C1066.46 356.088 1066.98 356.541 1067.82 356.541C1068.66 356.541 1069.18 356.088 1069.18 354.887V345.865C1069.18 344.664 1068.66 344.211 1067.82 344.211C1066.98 344.211 1066.46 344.664 1066.46 345.865V354.887Z" fill="#89B13B"/>
<path d="M1076.02 342.012V354.909C1076.02 356.111 1076.54 356.541 1077.37 356.541C1078.21 356.541 1078.73 356.111 1078.73 354.909V342.012H1081.22V354.751C1081.22 357.425 1079.89 358.967 1077.31 358.967C1074.73 358.967 1073.39 357.448 1073.39 354.751V342.012H1076.02Z" fill="#89B13B"/>
<path d="M1085.34 346.613V358.717H1082.98V341.989H1086.27L1088.96 352.008V341.989H1091.29V358.717H1088.6L1085.34 346.613Z" fill="#89B13B"/>
<path d="M1093.19 342.012H1097.33C1099.96 342.012 1101.25 343.463 1101.25 346.137V354.592C1101.25 357.267 1099.96 358.717 1097.33 358.717H1093.19V341.989V342.012ZM1095.82 344.392V356.337H1097.29C1098.13 356.337 1098.62 355.907 1098.62 354.705V346.001C1098.62 344.8 1098.13 344.369 1097.29 344.369H1095.82V344.392Z" fill="#89B13B"/>
<path d="M1191.35 238.267H1261.13C1269.07 238.267 1275.5 244.711 1275.5 252.66V420.144C1275.5 428.093 1269.07 434.537 1261.13 434.537H1191.35C1183.42 434.537 1176.98 428.093 1176.98 420.144V252.66C1176.98 244.711 1183.42 238.267 1191.35 238.267Z" fill="white"/>
<path d="M1191.35 234.481H1261.13C1261.13 234.481 1261.2 234.481 1261.22 234.481H1265.02C1275.03 234.481 1283.15 242.619 1283.15 252.637V420.144C1283.15 430.163 1275.03 438.3 1265.02 438.3H1261.22C1261.22 438.3 1261.15 438.3 1261.13 438.3H1191.35C1181.35 438.3 1173.22 430.14 1173.22 420.144V252.66C1173.22 242.641 1181.37 234.504 1191.35 234.504V234.481ZM1180.74 420.144C1180.74 425.992 1185.49 430.775 1191.35 430.775H1250.11H1261.15C1266.97 430.752 1271.72 425.992 1271.72 420.144V252.66C1271.72 246.812 1266.99 242.075 1261.15 242.029H1250.11H1191.35C1185.51 242.029 1180.74 246.789 1180.74 252.66V420.144Z" fill="#89B13B"/>
<path d="M1218.49 417.764C1218.49 422.048 1221.95 425.516 1226.23 425.516C1230.51 425.516 1233.97 422.048 1233.97 417.764C1233.97 413.48 1230.51 410.012 1226.23 410.012C1221.95 410.012 1218.49 413.48 1218.49 417.764Z" fill="#89B13B"/>
<path d="M1214.12 238.267C1214.12 244.976 1219.55 250.393 1226.23 250.393C1232.91 250.393 1238.34 244.953 1238.34 238.267H1214.12Z" fill="#89B13B"/>
<path d="M1234.29 354.344C1234.29 353.12 1234.06 351.964 1233.61 350.921C1233.15 349.856 1232.52 348.949 1231.7 348.156C1230.91 347.362 1229.96 346.75 1228.88 346.297C1227.79 345.844 1226.59 345.617 1225.3 345.617C1224.01 345.617 1222.86 345.844 1221.77 346.297C1220.68 346.75 1219.73 347.385 1218.92 348.156C1218.1 348.949 1217.47 349.856 1216.99 350.921C1216.54 351.986 1216.31 353.12 1216.31 354.344C1216.31 355.568 1216.54 356.724 1216.99 357.789C1217.45 358.854 1218.1 359.806 1218.92 360.577C1219.73 361.37 1220.68 361.982 1221.77 362.413C1222.86 362.866 1224.03 363.07 1225.3 363.07C1226.57 363.07 1227.79 362.844 1228.88 362.413C1229.96 361.96 1230.91 361.348 1231.7 360.577C1232.5 359.784 1233.13 358.854 1233.61 357.789C1234.06 356.724 1234.29 355.568 1234.29 354.344ZM1217.74 284.032V320.23C1217.74 323.358 1217.92 326.486 1218.31 329.569C1218.69 332.652 1219.17 335.802 1219.78 339.021H1230.51C1231.12 335.825 1231.61 332.674 1232 329.569C1232.38 326.486 1232.57 323.358 1232.57 320.23V284.032H1217.74Z" fill="#89B13B"/>
<path d="M0 431.5H1358V438.3H0V431.5Z" fill="#89B13B"/>
<path d="M1021.58 139.508C1059.72 139.508 1090.77 108.432 1090.77 70.2161C1090.77 32.0001 1059.74 0.924072 1021.58 0.924072C983.42 0.924072 952.389 32.0001 952.389 70.2161C952.389 108.432 983.42 139.508 1021.58 139.508Z" fill="#89B13B"/>
<path d="M1017.8 135.723C981.675 135.723 952.39 106.394 952.39 70.216C952.39 34.0377 981.675 4.70935 1017.8 4.70935C1053.93 4.70935 1083.21 34.0377 1083.21 70.216C1083.21 106.394 1053.93 135.723 1017.8 135.723Z" fill="white"/>
<path d="M1017.8 139.508C1055.94 139.508 1086.99 108.432 1086.99 70.2161C1086.99 32.0001 1055.96 0.924072 1017.8 0.924072C979.638 0.924072 948.608 32.0001 948.608 70.2161C948.608 108.432 979.638 139.508 1017.8 139.508ZM1017.8 8.49473C1051.79 8.49473 1079.45 36.1934 1079.45 70.2387C1079.45 104.284 1051.79 131.983 1017.8 131.983C983.803 131.983 956.145 104.284 956.145 70.2387C956.145 36.1934 983.803 8.49473 1017.8 8.49473Z" fill="#89B13B"/>
<path d="M1028.32 105.011C1028.32 103.787 1028.1 102.631 1027.65 101.588C1027.19 100.523 1026.56 99.6161 1025.74 98.8227C1024.95 98.0294 1024 97.4174 1022.91 96.9641C1021.83 96.5107 1020.63 96.2841 1019.34 96.2841C1018.05 96.2841 1016.89 96.5107 1015.81 96.9641C1014.72 97.4174 1013.77 98.052 1012.96 98.8227C1012.14 99.6161 1011.51 100.523 1011.03 101.588C1010.58 102.653 1010.35 103.787 1010.35 105.011C1010.35 106.235 1010.58 107.391 1011.03 108.456C1011.49 109.521 1012.14 110.473 1012.96 111.244C1013.77 112.037 1014.72 112.649 1015.81 113.08C1016.89 113.533 1018.07 113.737 1019.34 113.737C1020.61 113.737 1021.83 113.511 1022.91 113.08C1024 112.627 1024.95 112.015 1025.74 111.244C1026.54 110.451 1027.17 109.521 1027.65 108.456C1028.1 107.391 1028.32 106.235 1028.32 105.011ZM1011.78 34.6987V70.8974C1011.78 74.0254 1011.96 77.1534 1012.35 80.2361C1012.73 83.3187 1013.21 86.4694 1013.82 89.688H1024.54C1025.16 86.4921 1025.65 83.3414 1026.04 80.2361C1026.42 77.1534 1026.6 74.0254 1026.6 70.8974V34.6987H1011.78Z" fill="#89B13B"/>
<path d="M689.84 259.505H757.559C759.845 259.505 761.973 258.281 763.104 256.287L796.964 197.557C798.095 195.585 798.095 193.115 796.964 191.143L763.104 132.413C761.973 130.441 759.845 129.195 757.559 129.195H689.84C687.554 129.195 685.427 130.419 684.295 132.413L650.436 191.143C649.304 193.115 649.304 195.585 650.436 197.557L684.295 256.287C685.427 258.259 687.554 259.505 689.84 259.505Z" fill="#89B13B"/>
<path d="M684.455 132.663H752.174C753.238 132.663 754.211 133.229 754.754 134.159L788.613 192.888C789.134 193.817 789.134 194.951 788.613 195.857L754.754 254.587C754.233 255.516 753.238 256.083 752.174 256.083H684.455C683.391 256.083 682.418 255.516 681.875 254.587L648.015 195.857C647.495 194.928 647.495 193.795 648.015 192.888L681.875 134.159C682.395 133.229 683.391 132.663 684.455 132.663Z" fill="white"/>
<path d="M684.453 259.505H752.172C754.458 259.505 756.586 258.281 757.718 256.287L791.577 197.557C792.709 195.585 792.709 193.115 791.577 191.143L757.718 132.413C756.586 130.441 754.458 129.195 752.172 129.195H684.453C682.167 129.195 680.04 130.419 678.908 132.413L645.049 191.143C643.917 193.115 643.917 195.585 645.049 197.557L678.908 256.287C680.04 258.259 682.167 259.505 684.453 259.505ZM751.901 252.615H684.748L651.16 194.361L684.748 136.108H751.923L785.511 194.361L751.923 252.615H751.901Z" fill="#89B13B"/>
<path d="M727.297 225.143C727.297 223.919 727.071 222.763 726.618 221.72C726.165 220.655 725.532 219.748 724.717 218.955C723.925 218.161 722.974 217.549 721.888 217.096C720.801 216.643 719.602 216.416 718.311 216.416C717.021 216.416 715.867 216.643 714.781 217.096C713.694 217.549 712.744 218.184 711.929 218.955C711.114 219.748 710.48 220.655 710.005 221.72C709.552 222.785 709.326 223.919 709.326 225.143C709.326 226.367 709.552 227.523 710.005 228.588C710.458 229.653 711.114 230.605 711.929 231.376C712.744 232.169 713.694 232.781 714.781 233.212C715.867 233.665 717.044 233.869 718.311 233.869C719.579 233.869 720.801 233.643 721.888 233.212C722.974 232.759 723.925 232.147 724.717 231.376C725.509 230.583 726.143 229.653 726.618 228.588C727.071 227.523 727.297 226.367 727.297 225.143ZM710.752 154.831V191.029C710.752 194.157 710.933 197.285 711.318 200.368C711.703 203.451 712.178 206.601 712.789 209.82H723.517C724.128 206.624 724.626 203.473 725.011 200.368C725.396 197.285 725.577 194.157 725.577 191.029V154.831H710.752Z" fill="#89B13B"/>
<path d="M719.739 252.615H734.156V438.3H719.739V252.615Z" fill="#89B13B"/>
<path d="M713.153 256.06H727.57V434.855H713.153V256.06Z" fill="white"/>
<path d="M709.69 438.3H730.988V252.615H709.69V438.3ZM724.108 431.409H716.571V259.505H724.108V431.409Z" fill="#89B13B"/>
<path d="M674.674 116.683C672.796 117.725 670.442 117.045 669.401 115.187L665.802 108.749C664.761 106.868 665.44 104.511 667.296 103.445C669.174 102.403 671.528 103.083 672.592 104.941L676.191 111.379C677.232 113.26 676.553 115.617 674.697 116.683H674.674Z" fill="#89B13B"/>
<path d="M657.065 139.191C656.159 139.689 655.118 139.825 654.122 139.531L647.038 137.513C646.042 137.241 645.205 136.584 644.707 135.677C644.209 134.771 644.073 133.728 644.367 132.708C644.933 130.713 647.174 129.467 649.166 130.033L656.25 132.051C658.31 132.64 659.509 134.793 658.921 136.856C658.649 137.853 657.993 138.692 657.087 139.191H657.065Z" fill="#89B13B"/>
<path d="M704.845 110.268C704.55 111.311 703.871 112.127 703.011 112.603C702.151 113.079 701.087 113.237 700.069 112.943C698.009 112.353 696.81 110.2 697.398 108.137L699.413 101.043C700.001 98.98 702.151 97.7787 704.211 98.368C706.27 98.9574 707.47 101.111 706.882 103.173L704.867 110.268H704.845Z" fill="#89B13B"/>
</svg>
