<svg width="15" height="31" viewBox="0 0 15 31" fill="none" xmlns="http://www.w3.org/2000/svg">
<path d="M14.9199 13.155V23.155C14.9199 25.0115 14.1824 26.792 12.8697 28.1048C11.5569 29.4175 9.77644 30.155 7.91992 30.155C6.06341 30.155 4.28293 29.4175 2.97017 28.1048C1.65742 26.792 0.919922 25.0115 0.919922 23.155V5.15503C0.919922 3.82895 1.44671 2.55718 2.38439 1.6195C3.32207 0.681813 4.59384 0.155029 5.91992 0.155029C7.246 0.155029 8.51777 0.681813 9.45546 1.6195C10.3931 2.55718 10.9199 3.82895 10.9199 5.15503L10.9209 21.321C10.9209 22.1167 10.6049 22.8797 10.0422 23.4424C9.47963 24.005 8.71657 24.321 7.92092 24.321C7.12527 24.321 6.36221 24.005 5.7996 23.4424C5.23699 22.8797 4.92092 22.1167 4.92092 21.321V13.155C4.92092 12.8898 5.02628 12.6355 5.21382 12.4479C5.40135 12.2604 5.65571 12.155 5.92092 12.155C6.18614 12.155 6.44049 12.2604 6.62803 12.4479C6.81557 12.6355 6.92092 12.8898 6.92092 13.155V21.321C6.92092 21.5862 7.02628 21.8406 7.21381 22.0281C7.40135 22.2157 7.65571 22.321 7.92092 22.321C8.18614 22.321 8.44049 22.2157 8.62803 22.0281C8.81557 21.8406 8.92092 21.5862 8.92092 21.321L8.91992 5.15503C8.91992 4.35938 8.60385 3.59632 8.04124 3.03371C7.47863 2.4711 6.71557 2.15503 5.91992 2.15503C5.12427 2.15503 4.36121 2.4711 3.7986 3.03371C3.23599 3.59632 2.91992 4.35938 2.91992 5.15503V23.155C2.91992 24.4811 3.44671 25.7529 4.38439 26.6906C5.32207 27.6282 6.59384 28.155 7.91992 28.155C9.24601 28.155 10.5178 27.6282 11.4555 26.6906C12.3931 25.7529 12.9199 24.4811 12.9199 23.155V13.155C12.9199 12.8898 13.0253 12.6355 13.2128 12.4479C13.4004 12.2604 13.6547 12.155 13.9199 12.155C14.1851 12.155 14.4395 12.2604 14.627 12.4479C14.8146 12.6355 14.9199 12.8898 14.9199 13.155Z" fill="white"/>
</svg>
