<svg width="212" height="49" viewBox="0 0 212 49" fill="none" xmlns="http://www.w3.org/2000/svg">
<path d="M115.469 15.0955V33.3873H121.152V27.1524L125.03 33.3873H131.552L126.369 24.2968L131.552 15.0955H125.03L121.152 22.1816V15.0955H115.469Z" fill="white"/>
<path fill-rule="evenodd" clip-rule="evenodd" d="M133.491 33.3873L140.189 15.0955H145.23L151.823 33.3873H145.935L144.878 30.3958H140.189L139.167 33.3873H133.491ZM142.516 22.1816L141.352 26.0243H143.785L142.516 22.1816Z" fill="white"/>
<path d="M153.792 33.3873V15.0955H159.149L165.309 22.5119V15.0955H171.631V33.3873H167.988L159.577 23.9583V33.3873H153.792Z" fill="white"/>
<path d="M189.041 16.0298C183.898 14.1905 173.613 13.2013 173.613 23.9583C173.613 37.4046 189.309 33.8064 189.952 32.1011V22.5119H182.613V27.2261H185.291C185.052 29.9126 178.97 29.1225 178.97 24.2797C178.97 18.2262 187.327 18.9762 189.041 20.9583V16.0298Z" fill="white"/>
<path fill-rule="evenodd" clip-rule="evenodd" d="M192.121 23.9583C192.121 18.5473 196.456 14.6807 201.456 14.6807C206.455 14.6807 211.766 17.5743 211.766 23.9583C211.766 30.3422 206.572 33.8963 201.456 33.8963C196.339 33.8963 192.121 29.9551 192.121 23.9583ZM201.456 19.8361C199.659 19.8361 197.901 21.4374 197.901 24.2797C197.901 26.0476 198.761 28.6237 201.456 28.6237C204.15 28.6237 205.947 27.2261 205.947 23.9583C205.947 20.6904 203.252 19.8361 201.456 19.8361Z" fill="white"/>
<path d="M0.708984 8.90875C35.7452 28.5859 34.394 -21.2581 95.2559 11.6627C92.8626 8.73697 93.3726 6.92146 95.2559 3.5849C97.2994 12.9721 103.455 14.4734 104.251 21.3924C36.0455 -23.6602 46.5547 40.5964 0.708984 8.90875Z" fill="white"/>
<path d="M54.1232 20.4448L42.9857 15.3626C60.4187 5.27993 79.5277 8.20883 96.0783 20.4448C82.4537 11.6627 62.7609 14.4075 54.1232 20.4448Z" fill="white"/>
<path d="M59.8542 23.148C74.6113 30.1474 82.2353 35.8708 95.2559 48.1265L109.379 47.1533C109.342 45.5848 105.943 45.4676 96.0783 46.072C79.754 31.3984 75.7315 25.0089 84.8326 19.4716C75.185 18.1858 69.8194 16.2401 59.8542 23.148Z" fill="white"/>
</svg>
