<svg width="44" height="29" viewBox="0 0 44 29" fill="none" xmlns="http://www.w3.org/2000/svg">
<path fill-rule="evenodd" clip-rule="evenodd" d="M4.07923 0.499434C3.20704 0.759725 2.65688 1.00447 2.65688 1.1321C2.65688 1.19876 2.94486 1.47991 3.29694 1.7568C3.64902 2.03378 4.06501 2.37514 4.22147 2.51529C4.37793 2.65554 5.18867 3.33116 6.02312 4.01683C6.85757 4.7025 7.65021 5.35698 7.78448 5.47124C7.91884 5.58541 8.34555 5.93493 8.73272 6.24785C9.11998 6.56076 9.47945 6.86183 9.53161 6.91692C9.58376 6.97192 9.94485 7.27062 10.3341 7.58069C10.7234 7.89067 11.1103 8.20833 11.1941 8.28656C11.2778 8.36479 11.7677 8.77016 12.2828 9.18739C12.7979 9.60461 13.2964 10.0206 13.3905 10.1119C13.4846 10.2032 13.6043 10.2779 13.6564 10.2779C13.7086 10.2779 13.7513 10.3104 13.7513 10.3502C13.7513 10.39 14.0787 10.678 14.4789 10.9903C14.879 11.3025 15.2737 11.6233 15.356 11.7033C15.4382 11.7832 15.7189 12.0152 15.9796 12.2189C16.2404 12.4226 16.5236 12.6559 16.609 12.7374C16.6944 12.8189 16.9268 13.0135 17.1256 13.17C17.3243 13.3264 17.6599 13.6063 17.8712 13.7918C18.0825 13.9774 18.4688 14.2974 18.7295 14.503C18.9903 14.7086 19.225 14.9033 19.2511 14.9355C19.3146 15.0142 20.6597 16.0747 20.9553 16.2793C21.1181 16.3919 21.3795 16.4414 21.8113 16.4414C22.2431 16.4414 22.5045 16.3919 22.6673 16.2793C22.9629 16.0747 24.308 15.0142 24.3715 14.9355C24.3976 14.9033 24.6323 14.7086 24.8931 14.503C25.1538 14.2974 25.5401 13.9774 25.7514 13.7918C25.9627 13.6063 26.2977 13.3264 26.4959 13.17C26.6941 13.0135 26.9051 12.8407 26.9651 12.7859C27.025 12.731 27.33 12.4793 27.643 12.2266C27.9559 11.9738 28.2332 11.7413 28.2593 11.7099C28.2854 11.6785 28.6428 11.3811 29.0537 11.0491C29.4644 10.7171 29.8911 10.3693 30.0019 10.2762C30.1126 10.183 30.6299 9.7587 31.1515 9.33304C31.673 8.90737 32.2732 8.41306 32.4853 8.23469C32.6974 8.05623 33.1454 7.69059 33.481 7.42215C33.8165 7.15379 34.1123 6.90763 34.1384 6.8753C34.1645 6.84287 34.5026 6.56048 34.8899 6.24766C35.277 5.93483 35.7038 5.58635 35.8381 5.47332C36.5415 4.88124 37.6264 3.98307 38.4535 3.30831C38.9648 2.89108 39.43 2.50553 39.487 2.45157C39.5441 2.39762 39.9001 2.1048 40.2783 1.8008C40.6563 1.49689 40.9657 1.19686 40.9657 1.13409C40.9657 0.997638 40.1946 0.672392 39.3875 0.468521C38.8707 0.338043 36.8707 0.322586 21.7028 0.332543C6.14089 0.342784 4.55383 0.357767 4.07923 0.499434ZM1.12926 2.39003C0.946442 2.60357 0.627076 3.19983 0.459806 3.64019C0.358345 3.90712 0.32838 5.9575 0.306666 14.1182C0.282391 23.1981 0.295761 24.3376 0.433635 24.9608C0.578621 25.6166 0.813499 26.1369 1.13581 26.5165C1.2825 26.6892 1.4803 26.7353 1.53482 26.6094C1.55218 26.5693 1.90777 26.2614 2.32499 25.9253C2.74222 25.5893 3.10492 25.2899 3.131 25.26C3.15707 25.2302 3.51977 24.9301 3.937 24.5931C4.89349 23.8207 5.11718 23.6355 5.30796 23.4584C5.39226 23.3802 5.77962 23.0625 6.16887 22.7525C6.55812 22.4424 6.91921 22.1437 6.97136 22.0887C7.02352 22.0337 7.38622 21.735 7.77737 21.425C8.16851 21.1149 8.53122 20.8162 8.58337 20.7612C8.63552 20.7061 8.99822 20.4072 9.38937 20.0971C9.78052 19.7868 10.124 19.4996 10.1525 19.4587C10.1811 19.4177 10.3566 19.2662 10.5425 19.1219C11.1686 18.6357 12.7548 17.3431 12.8504 17.2411C12.9316 17.1545 13.7274 16.5002 14.1114 16.2044C14.1791 16.1522 14.3071 16.0435 14.3959 15.9629C14.4846 15.8823 14.792 15.6265 15.0788 15.3945C16.2517 14.4456 16.2782 14.3876 15.7173 14.0024C15.5487 13.8865 15.304 13.6925 15.1736 13.5713C15.0432 13.4501 14.6805 13.1439 14.3676 12.8908C14.0547 12.6378 13.7773 12.405 13.7513 12.3735C13.7252 12.3419 13.3838 12.0626 12.9927 11.7527C12.6015 11.4428 12.2388 11.1442 12.1867 11.0892C12.1345 11.0341 11.7718 10.7351 11.3807 10.4247C10.9895 10.1143 10.5628 9.76449 10.4324 9.64728C10.3021 9.53008 9.76867 9.08735 9.24714 8.6633C8.7256 8.23934 8.19222 7.79765 8.06184 7.68187C7.93145 7.56609 7.50475 7.21742 7.1136 6.90697C6.72245 6.59661 6.35975 6.29763 6.30759 6.24254C6.25544 6.18754 5.89435 5.88884 5.5051 5.57877C5.11585 5.26879 4.72887 4.95113 4.64514 4.8729C4.56141 4.79467 4.07316 4.3893 3.56007 3.97207C3.04708 3.55485 2.58064 3.17062 2.52355 3.11828C2.14445 2.77018 1.43118 2.21783 1.36092 2.21783C1.31464 2.21783 1.21034 2.2953 1.12926 2.39003ZM41.8666 2.46864C41.3783 2.88871 41.1254 3.09941 40.3463 3.73501C39.5257 4.40438 39.5593 4.37669 38.4529 5.30018C37.1493 6.38838 36.9525 6.55014 36.3194 7.05499C35.9804 7.32524 35.6817 7.57453 35.6556 7.60895C35.6295 7.64337 35.2028 7.99744 34.7073 8.3958C33.1555 9.64358 32.5754 10.1176 32.5264 10.1782C32.5003 10.2105 32.2656 10.4062 32.0049 10.613C31.7441 10.8198 31.5094 11.0117 31.4833 11.0394C31.4573 11.0672 31.0946 11.3659 30.6773 11.7032C30.2601 12.0405 29.8974 12.3423 29.8713 12.3737C29.8453 12.405 29.5679 12.6376 29.255 12.8904C28.9421 13.1431 28.6402 13.3947 28.5842 13.4496C28.5282 13.5044 28.2846 13.6986 28.0429 13.8812C27.8012 14.0637 27.5788 14.274 27.5486 14.3485C27.4894 14.4947 27.815 14.8378 28.5912 15.4469C28.852 15.6515 29.138 15.8843 29.2267 15.9643C29.4939 16.2047 29.7 16.3747 30.2004 16.7669C30.4627 16.9726 30.784 17.2361 30.9144 17.3524C31.0448 17.4686 31.6635 17.9818 32.2893 18.4927C32.9152 19.0037 33.4486 19.4468 33.4746 19.4774C33.5007 19.508 33.8406 19.7868 34.2299 20.0971C34.6192 20.4072 35.0074 20.7251 35.0924 20.8033C35.1776 20.8815 35.6663 21.2869 36.1784 21.7041C36.6907 22.1214 37.1788 22.5267 37.2633 22.605C37.3477 22.6832 37.7353 23.0031 38.1245 23.316C38.5138 23.6288 38.8535 23.9112 38.8796 23.9436C38.9057 23.976 39.2684 24.2716 39.6856 24.6004C40.1028 24.9293 40.4655 25.228 40.4916 25.2642C40.5177 25.3004 40.8804 25.5994 41.2976 25.9285C41.7148 26.2578 42.0704 26.5621 42.0878 26.6047C42.2255 26.943 42.8597 26.1231 43.1267 25.2619C43.2755 24.7815 43.2889 23.8894 43.2889 14.4027C43.2889 4.70051 43.2785 4.03693 43.1185 3.57865C42.9198 3.00914 42.419 2.2165 42.2606 2.22087C42.2003 2.22248 42.023 2.33399 41.8666 2.46864ZM17.2439 15.5708C17.2266 15.6135 16.871 15.9178 16.4538 16.247C16.0365 16.5762 15.6738 16.8737 15.6477 16.9083C15.6217 16.9428 15.3443 17.1762 15.0314 17.427C14.3965 17.9358 14.1465 18.1426 11.801 20.0993C11.589 20.2763 11.141 20.6407 10.8054 20.9091C10.4699 21.1775 10.174 21.4237 10.148 21.4562C10.1219 21.4887 9.80185 21.7543 9.43678 22.0465C9.07171 22.3385 8.645 22.6881 8.48854 22.8232C8.33209 22.9583 7.52134 23.6301 6.68689 24.3161C5.85244 25.002 4.97769 25.7243 4.743 25.9211C4.50831 26.118 3.94297 26.5885 3.48658 26.967C3.03029 27.3453 2.65688 27.6869 2.65688 27.7259C2.65688 27.9109 3.61555 28.2952 4.53429 28.4785C5.23561 28.6185 38.387 28.6185 39.0883 28.4785C40.0091 28.2948 40.9657 27.9109 40.9657 27.7252C40.9657 27.6856 40.5532 27.3174 40.0491 26.907C39.5449 26.4966 39.0647 26.0969 38.9818 26.0186C38.899 25.9404 38.5755 25.6696 38.2628 25.4169C37.9501 25.1641 37.5023 24.7958 37.2676 24.5984C37.0329 24.401 36.536 23.9891 36.1635 23.683C35.7909 23.3769 35.0704 22.7851 34.5624 22.3679C34.0544 21.9507 33.3137 21.3376 32.9166 21.0054C32.5195 20.6732 32.0238 20.2605 31.8152 20.0883C31.6066 19.9161 30.9025 19.3337 30.2506 18.7941C29.5987 18.2545 28.7453 17.5578 28.3541 17.2458C27.963 16.9337 27.6003 16.633 27.5481 16.5773C27.496 16.5216 27.2186 16.2869 26.9318 16.0558C26.6449 15.8246 26.396 15.6035 26.3787 15.5643C26.3371 15.4708 26.0084 15.4723 25.9677 15.5662C25.9504 15.6063 25.5948 15.915 25.1775 16.252C24.7603 16.5891 24.3343 16.9421 24.2309 17.0364C23.8425 17.3906 23.2293 17.6763 22.5258 17.8309C21.8378 17.982 21.7609 17.9814 21.0704 17.8202C20.3562 17.6535 19.7665 17.3782 19.3917 17.0364C19.2883 16.9421 18.8623 16.5891 18.4451 16.252C18.0278 15.915 17.6722 15.6063 17.6549 15.5662C17.6127 15.4687 17.284 15.4725 17.2439 15.5708Z" fill="#042B62"/>
</svg>
