<svg width="44" height="30" viewBox="0 0 44 30" fill="none" xmlns="http://www.w3.org/2000/svg">
<path fill-rule="evenodd" clip-rule="evenodd" d="M4.32923 1.07707C3.45704 1.33736 2.90688 1.5821 2.90688 1.70973C2.90688 1.7764 3.19486 2.05755 3.54694 2.33443C3.89902 2.61142 4.31501 2.95278 4.47147 3.09293C4.62793 3.23317 5.43867 3.9088 6.27312 4.59447C7.10757 5.28014 7.90021 5.93461 8.03448 6.04888C8.16884 6.16304 8.59555 6.51256 8.98272 6.82548C9.36998 7.1384 9.72945 7.43947 9.78161 7.49456C9.83376 7.54956 10.1948 7.84825 10.5841 8.15833C10.9734 8.46831 11.3603 8.78597 11.4441 8.8642C11.5278 8.94243 12.0177 9.3478 12.5328 9.76502C13.0479 10.1822 13.5464 10.5982 13.6405 10.6896C13.7346 10.7809 13.8543 10.8555 13.9064 10.8555C13.9586 10.8555 14.0013 10.888 14.0013 10.9278C14.0013 10.9677 14.3287 11.2557 14.7289 11.5679C15.129 11.8802 15.5237 12.201 15.606 12.2809C15.6882 12.3608 15.9689 12.5929 16.2296 12.7965C16.4904 13.0002 16.7736 13.2336 16.859 13.315C16.9444 13.3965 17.1768 13.5912 17.3756 13.7476C17.5743 13.9041 17.9099 14.1839 18.1212 14.3695C18.3325 14.5551 18.7188 14.8751 18.9795 15.0807C19.2403 15.2862 19.475 15.4809 19.5011 15.5132C19.5646 15.5919 20.9097 16.6524 21.2053 16.8569C21.3681 16.9696 21.6295 17.0191 22.0613 17.0191C22.4931 17.0191 22.7545 16.9696 22.9173 16.8569C23.2129 16.6524 24.558 15.5919 24.6215 15.5132C24.6476 15.4809 24.8823 15.2862 25.1431 15.0807C25.4038 14.8751 25.7901 14.5551 26.0014 14.3695C26.2127 14.1839 26.5477 13.9041 26.7459 13.7476C26.9441 13.5912 27.1551 13.4183 27.2151 13.3635C27.275 13.3086 27.58 13.0569 27.893 12.8042C28.2059 12.5514 28.4832 12.3189 28.5093 12.2875C28.5354 12.2561 28.8928 11.9588 29.3037 11.6267C29.7144 11.2947 30.1411 10.9469 30.2519 10.8538C30.3626 10.7607 30.8799 10.3363 31.4015 9.91067C31.923 9.48501 32.5232 8.99069 32.7353 8.81233C32.9474 8.63387 33.3954 8.26823 33.731 7.99978C34.0665 7.73143 34.3623 7.48527 34.3884 7.45293C34.4145 7.4205 34.7526 7.13812 35.1399 6.82529C35.527 6.51247 35.9538 6.16399 36.0881 6.05096C36.7915 5.45888 37.8764 4.56071 38.7035 3.88594C39.2148 3.46872 39.68 3.08316 39.737 3.02921C39.7941 2.97525 40.1501 2.68244 40.5283 2.37843C40.9063 2.07452 41.2157 1.7745 41.2157 1.71173C41.2157 1.57527 40.4446 1.25003 39.6375 1.04616C39.1207 0.91568 37.1207 0.900223 21.9528 0.910179C6.39089 0.92042 4.80383 0.935403 4.32923 1.07707ZM1.37926 2.96767C1.19644 3.18121 0.877076 3.77746 0.709806 4.21783C0.608345 4.48476 0.57838 6.53513 0.556666 14.6959C0.532391 23.7757 0.545761 24.9152 0.683635 25.5384C0.828621 26.1942 1.0635 26.7145 1.38581 27.0941C1.5325 27.2669 1.7303 27.3129 1.78482 27.187C1.80218 27.1469 2.15777 26.839 2.57499 26.503C2.99222 26.1669 3.35492 25.8675 3.381 25.8377C3.40707 25.8078 3.76977 25.5078 4.187 25.1708C5.14349 24.3983 5.36718 24.2131 5.55796 24.036C5.64226 23.9578 6.02962 23.6401 6.41887 23.3301C6.80812 23.0201 7.16921 22.7214 7.22136 22.6664C7.27352 22.6113 7.63622 22.3126 8.02737 22.0026C8.41851 21.6925 8.78121 21.3938 8.83337 21.3388C8.88552 21.2838 9.24822 20.9849 9.63937 20.6747C10.0305 20.3644 10.374 20.0772 10.4025 20.0363C10.4311 19.9954 10.6066 19.8439 10.7925 19.6995C11.4186 19.2134 13.0048 17.9207 13.1004 17.8187C13.1816 17.7321 13.9774 17.0778 14.3614 16.782C14.4291 16.7298 14.5571 16.6212 14.6459 16.5406C14.7346 16.46 15.042 16.2041 15.3288 15.9721C16.5017 15.0232 16.5282 14.9653 15.9673 14.58C15.7987 14.4641 15.554 14.2701 15.4236 14.1489C15.2932 14.0277 14.9305 13.7215 14.6176 13.4685C14.3047 13.2155 14.0273 12.9826 14.0013 12.9511C13.9752 12.9195 13.6338 12.6403 13.2427 12.3303C12.8515 12.0204 12.4888 11.7218 12.4367 11.6668C12.3845 11.6117 12.0218 11.3127 11.6307 11.0024C11.2395 10.6919 10.8128 10.3421 10.6824 10.2249C10.5521 10.1077 10.0187 9.66499 9.49714 9.24093C8.9756 8.81698 8.44222 8.37529 8.31184 8.25951C8.18145 8.14372 7.75475 7.79506 7.3636 7.4846C6.97245 7.17425 6.60975 6.87527 6.55759 6.82017C6.50544 6.76517 6.14435 6.46648 5.7551 6.15641C5.36585 5.84643 4.97887 5.52877 4.89514 5.45054C4.81141 5.37231 4.32316 4.96694 3.81007 4.54971C3.29708 4.13248 2.83064 3.74826 2.77355 3.69592C2.39445 3.34782 1.68118 2.79547 1.61092 2.79547C1.56464 2.79547 1.46034 2.87294 1.37926 2.96767ZM42.1166 3.04628C41.6283 3.46635 41.3754 3.67705 40.5963 4.31265C39.7757 4.98201 39.8093 4.95432 38.7029 5.87781C37.3993 6.96601 37.2025 7.12778 36.5694 7.63262C36.2304 7.90287 35.9317 8.15216 35.9056 8.18659C35.8795 8.22101 35.4528 8.57508 34.9573 8.97343C33.4055 10.2212 32.8254 10.6952 32.7764 10.7558C32.7503 10.7882 32.5156 10.9838 32.2549 11.1906C31.9941 11.3974 31.7594 11.5893 31.7333 11.617C31.7073 11.6448 31.3446 11.9435 30.9273 12.2808C30.5101 12.6182 30.1474 12.9199 30.1213 12.9513C30.0953 12.9827 29.8179 13.2152 29.505 13.468C29.1921 13.7207 28.8902 13.9724 28.8342 14.0273C28.7782 14.0821 28.5346 14.2763 28.2929 14.4588C28.0512 14.6413 27.8288 14.8517 27.7986 14.9261C27.7394 15.0723 28.065 15.4154 28.8412 16.0245C29.102 16.2292 29.388 16.462 29.4767 16.5419C29.7439 16.7824 29.95 16.9523 30.4504 17.3446C30.7127 17.5503 31.034 17.8138 31.1644 17.93C31.2948 18.0463 31.9135 18.5595 32.5393 19.0704C33.1652 19.5814 33.6986 20.0244 33.7246 20.055C33.7507 20.0857 34.0906 20.3644 34.4799 20.6747C34.8692 20.9849 35.2574 21.3027 35.3424 21.3809C35.4276 21.4592 35.9163 21.8645 36.4284 22.2818C36.9407 22.699 37.4288 23.1044 37.5133 23.1826C37.5977 23.2608 37.9853 23.5808 38.3745 23.8936C38.7638 24.2064 39.1035 24.4888 39.1296 24.5212C39.1557 24.5537 39.5184 24.8492 39.9356 25.1781C40.3528 25.5069 40.7155 25.8056 40.7416 25.8418C40.7677 25.8781 41.1304 26.177 41.5476 26.5062C41.9648 26.8354 42.3204 27.1397 42.3378 27.1824C42.4755 27.5206 43.1097 26.7008 43.3767 25.8396C43.5255 25.3591 43.5389 24.467 43.5389 14.9803C43.5389 5.27815 43.5285 4.61457 43.3685 4.15629C43.1698 3.58677 42.669 2.79414 42.5106 2.7985C42.4503 2.80011 42.273 2.91163 42.1166 3.04628ZM17.4939 16.1485C17.4766 16.1911 17.121 16.4954 16.7038 16.8247C16.2865 17.1538 15.9238 17.4514 15.8977 17.486C15.8717 17.5205 15.5943 17.7538 15.2814 18.0047C14.6465 18.5135 14.3965 18.7203 12.051 20.677C11.839 20.8539 11.391 21.2183 11.0554 21.4868C10.7199 21.7551 10.424 22.0014 10.398 22.0338C10.3719 22.0663 10.0519 22.3319 9.68678 22.6241C9.32171 22.9161 8.895 23.2658 8.73854 23.4008C8.58208 23.5359 7.77134 24.2077 6.93689 24.8937C6.10244 25.5797 5.22769 26.3019 4.993 26.4988C4.75831 26.6956 4.19297 27.1662 3.73658 27.5446C3.28029 27.9229 2.90688 28.2645 2.90688 28.3036C2.90688 28.4886 3.86555 28.8729 4.78429 29.0562C5.48561 29.1961 38.637 29.1961 39.3383 29.0562C40.2591 28.8724 41.2157 28.4886 41.2157 28.3028C41.2157 28.2633 40.8032 27.8951 40.2991 27.4847C39.7949 27.0743 39.3147 26.6745 39.2318 26.5963C39.149 26.518 38.8255 26.2472 38.5128 25.9945C38.2001 25.7417 37.7523 25.3734 37.5176 25.1761C37.2829 24.9787 36.786 24.5667 36.4135 24.2607C36.0409 23.9546 35.3204 23.3628 34.8124 22.9455C34.3044 22.5283 33.5637 21.9152 33.1666 21.583C32.7695 21.2509 32.2738 20.8382 32.0652 20.666C31.8566 20.4938 31.1525 19.9114 30.5006 19.3717C29.8487 18.8322 28.9953 18.1354 28.6041 17.8234C28.213 17.5114 27.8503 17.2106 27.7981 17.1549C27.746 17.0993 27.4686 16.8646 27.1818 16.6334C26.8949 16.4022 26.646 16.1811 26.6287 16.1419C26.5871 16.0484 26.2584 16.0499 26.2177 16.1438C26.2004 16.1839 25.8448 16.4926 25.4275 16.8297C25.0103 17.1668 24.5843 17.5197 24.4809 17.6141C24.0925 17.9682 23.4793 18.2539 22.7758 18.4085C22.0878 18.5597 22.0109 18.5591 21.3204 18.3979C20.6062 18.2312 20.0165 17.9558 19.6417 17.6141C19.5383 17.5197 19.1123 17.1668 18.6951 16.8297C18.2778 16.4926 17.9222 16.1839 17.9049 16.1438C17.8627 16.0463 17.534 16.0501 17.4939 16.1485Z" fill="#B13B62"/>
</svg>
