<svg width="44" height="29" viewBox="0 0 44 29" fill="none" xmlns="http://www.w3.org/2000/svg">
<path fill-rule="evenodd" clip-rule="evenodd" d="M4.32923 0.918867C3.45704 1.17916 2.90688 1.4239 2.90688 1.55153C2.90688 1.61819 3.19486 1.89935 3.54694 2.17623C3.89902 2.45321 4.31501 2.79458 4.47147 2.93473C4.62793 3.07497 5.43867 3.75059 6.27312 4.43626C7.10757 5.12193 7.90021 5.77641 8.03448 5.89067C8.16884 6.00484 8.59555 6.35436 8.98272 6.66728C9.36998 6.9802 9.72945 7.28126 9.78161 7.33636C9.83376 7.39136 10.1948 7.69005 10.5841 8.00012C10.9734 8.3101 11.3603 8.62776 11.4441 8.70599C11.5278 8.78422 12.0177 9.1896 12.5328 9.60682C13.0479 10.024 13.5464 10.44 13.6405 10.5314C13.7346 10.6227 13.8543 10.6973 13.9064 10.6973C13.9586 10.6973 14.0013 10.7298 14.0013 10.7696C14.0013 10.8095 14.3287 11.0975 14.7289 11.4097C15.129 11.722 15.5237 12.0428 15.606 12.1227C15.6882 12.2026 15.9689 12.4347 16.2296 12.6383C16.4904 12.842 16.7736 13.0754 16.859 13.1568C16.9444 13.2383 17.1768 13.433 17.3756 13.5894C17.5743 13.7459 17.9099 14.0257 18.1212 14.2113C18.3325 14.3968 18.7188 14.7169 18.9795 14.9225C19.2403 15.128 19.475 15.3227 19.5011 15.3549C19.5646 15.4337 20.9097 16.4942 21.2053 16.6987C21.3681 16.8113 21.6295 16.8608 22.0613 16.8608C22.4931 16.8608 22.7545 16.8113 22.9173 16.6987C23.2129 16.4942 24.558 15.4337 24.6215 15.3549C24.6476 15.3227 24.8823 15.128 25.1431 14.9225C25.4038 14.7169 25.7901 14.3968 26.0014 14.2113C26.2127 14.0257 26.5477 13.7459 26.7459 13.5894C26.9441 13.433 27.1551 13.2601 27.2151 13.2053C27.275 13.1504 27.58 12.8987 27.893 12.646C28.2059 12.3932 28.4832 12.1607 28.5093 12.1293C28.5354 12.0979 28.8928 11.8006 29.3037 11.4685C29.7144 11.1365 30.1411 10.7887 30.2519 10.6956C30.3626 10.6025 30.8799 10.1781 31.4015 9.75247C31.923 9.32681 32.5232 8.83249 32.7353 8.65413C32.9474 8.47567 33.3954 8.11003 33.731 7.84158C34.0665 7.57323 34.3623 7.32707 34.3884 7.29473C34.4145 7.2623 34.7526 6.97991 35.1399 6.66709C35.527 6.35427 35.9538 6.00579 36.0881 5.89276C36.7915 5.30068 37.8764 4.40251 38.7035 3.72774C39.2148 3.31051 39.68 2.92496 39.737 2.87101C39.7941 2.81705 40.1501 2.52424 40.5283 2.22023C40.9063 1.91632 41.2157 1.6163 41.2157 1.55352C41.2157 1.41707 40.4446 1.09183 39.6375 0.887954C39.1207 0.757477 37.1207 0.74202 21.9528 0.751976C6.39089 0.762217 4.80383 0.7772 4.32923 0.918867ZM1.37926 2.80946C1.19644 3.02301 0.877076 3.61926 0.709806 4.05962C0.608345 4.32655 0.57838 6.37693 0.556666 14.5377C0.532391 23.6175 0.545761 24.757 0.683635 25.3802C0.828621 26.036 1.0635 26.5563 1.38581 26.9359C1.5325 27.1087 1.7303 27.1547 1.78482 27.0288C1.80218 26.9887 2.15777 26.6808 2.57499 26.3448C2.99222 26.0087 3.35492 25.7093 3.381 25.6795C3.40707 25.6496 3.76977 25.3496 4.187 25.0126C5.14349 24.2401 5.36718 24.0549 5.55796 23.8778C5.64226 23.7996 6.02962 23.4819 6.41887 23.1719C6.80812 22.8619 7.16921 22.5632 7.22136 22.5082C7.27352 22.4531 7.63622 22.1544 8.02737 21.8444C8.41851 21.5343 8.78121 21.2356 8.83337 21.1806C8.88552 21.1256 9.24822 20.8267 9.63937 20.5165C10.0305 20.2062 10.374 19.919 10.4025 19.8781C10.4311 19.8372 10.6066 19.6856 10.7925 19.5413C11.4186 19.0552 13.0048 17.7625 13.1004 17.6605C13.1816 17.5739 13.9774 16.9196 14.3614 16.6238C14.4291 16.5716 14.5571 16.463 14.6459 16.3824C14.7346 16.3018 15.042 16.0459 15.3288 15.8139C16.5017 14.865 16.5282 14.8071 15.9673 14.4218C15.7987 14.3059 15.554 14.1119 15.4236 13.9907C15.2932 13.8695 14.9305 13.5633 14.6176 13.3103C14.3047 13.0573 14.0273 12.8244 14.0013 12.7929C13.9752 12.7613 13.6338 12.4821 13.2427 12.1721C12.8515 11.8622 12.4888 11.5636 12.4367 11.5086C12.3845 11.4535 12.0218 11.1545 11.6307 10.8442C11.2395 10.5337 10.8128 10.1839 10.6824 10.0667C10.5521 9.94951 10.0187 9.50678 9.49714 9.08273C8.9756 8.65877 8.44222 8.21708 8.31184 8.1013C8.18145 7.98552 7.75475 7.63685 7.3636 7.3264C6.97245 7.01604 6.60975 6.71706 6.55759 6.66197C6.50544 6.60697 6.14435 6.30828 5.7551 5.9982C5.36585 5.68822 4.97887 5.37056 4.89514 5.29233C4.81141 5.2141 4.32316 4.80873 3.81007 4.39151C3.29708 3.97428 2.83064 3.59006 2.77355 3.53771C2.39445 3.18961 1.68118 2.63727 1.61092 2.63727C1.56464 2.63727 1.46034 2.71474 1.37926 2.80946ZM42.1166 2.88807C41.6283 3.30814 41.3754 3.51884 40.5963 4.15445C39.7757 4.82381 39.8093 4.79612 38.7029 5.71961C37.3993 6.80781 37.2025 6.96958 36.5694 7.47442C36.2304 7.74467 35.9317 7.99396 35.9056 8.02838C35.8795 8.0628 35.4528 8.41687 34.9573 8.81523C33.4055 10.063 32.8254 10.537 32.7764 10.5976C32.7503 10.63 32.5156 10.8256 32.2549 11.0324C31.9941 11.2392 31.7594 11.4311 31.7333 11.4588C31.7073 11.4866 31.3446 11.7853 30.9273 12.1226C30.5101 12.46 30.1474 12.7617 30.1213 12.7931C30.0953 12.8245 29.8179 13.057 29.505 13.3098C29.1921 13.5625 28.8902 13.8142 28.8342 13.8691C28.7782 13.9239 28.5346 14.1181 28.2929 14.3006C28.0512 14.4831 27.8288 14.6935 27.7986 14.7679C27.7394 14.9141 28.065 15.2572 28.8412 15.8663C29.102 16.071 29.388 16.3038 29.4767 16.3837C29.7439 16.6242 29.95 16.7941 30.4504 17.1864C30.7127 17.3921 31.034 17.6556 31.1644 17.7718C31.2948 17.8881 31.9135 18.4013 32.5393 18.9122C33.1652 19.4232 33.6986 19.8662 33.7246 19.8968C33.7507 19.9275 34.0906 20.2062 34.4799 20.5165C34.8692 20.8267 35.2574 21.1445 35.3424 21.2227C35.4276 21.301 35.9163 21.7063 36.4284 22.1236C36.9407 22.5408 37.4288 22.9462 37.5133 23.0244C37.5977 23.1026 37.9853 23.4226 38.3745 23.7354C38.7638 24.0482 39.1035 24.3306 39.1296 24.363C39.1557 24.3955 39.5184 24.691 39.9356 25.0199C40.3528 25.3487 40.7155 25.6474 40.7416 25.6836C40.7677 25.7199 41.1304 26.0188 41.5476 26.348C41.9648 26.6772 42.3204 26.9815 42.3378 27.0242C42.4755 27.3624 43.1097 26.5426 43.3767 25.6814C43.5255 25.2009 43.5389 24.3088 43.5389 14.8221C43.5389 5.11994 43.5285 4.45637 43.3685 3.99808C43.1698 3.42857 42.669 2.63594 42.5106 2.6403C42.4503 2.64191 42.273 2.75342 42.1166 2.88807ZM17.4939 15.9903C17.4766 16.0329 17.121 16.3372 16.7038 16.6665C16.2865 16.9956 15.9238 17.2931 15.8977 17.3278C15.8717 17.3623 15.5943 17.5956 15.2814 17.8464C14.6465 18.3553 14.3965 18.5621 12.051 20.5188C11.839 20.6957 11.391 21.0601 11.0554 21.3286C10.7199 21.5969 10.424 21.8432 10.398 21.8756C10.3719 21.9081 10.0519 22.1737 9.68678 22.4659C9.32171 22.7579 8.895 23.1076 8.73854 23.2426C8.58208 23.3777 7.77134 24.0495 6.93689 24.7355C6.10244 25.4215 5.22769 26.1437 4.993 26.3406C4.75831 26.5374 4.19297 27.008 3.73658 27.3864C3.28029 27.7647 2.90688 28.1063 2.90688 28.1454C2.90688 28.3304 3.86555 28.7147 4.78429 28.898C5.48561 29.0379 38.637 29.0379 39.3383 28.898C40.2591 28.7142 41.2157 28.3304 41.2157 28.1446C41.2157 28.1051 40.8032 27.7369 40.2991 27.3265C39.7949 26.9161 39.3147 26.5163 39.2318 26.4381C39.149 26.3598 38.8255 26.089 38.5128 25.8363C38.2001 25.5835 37.7523 25.2152 37.5176 25.0179C37.2829 24.8205 36.786 24.4085 36.4135 24.1025C36.0409 23.7964 35.3204 23.2046 34.8124 22.7873C34.3044 22.3701 33.5637 21.757 33.1666 21.4248C32.7695 21.0926 32.2738 20.68 32.0652 20.5078C31.8566 20.3356 31.1525 19.7532 30.5006 19.2135C29.8487 18.674 28.9953 17.9772 28.6041 17.6652C28.213 17.3532 27.8503 17.0524 27.7981 16.9967C27.746 16.9411 27.4686 16.7064 27.1818 16.4752C26.8949 16.244 26.646 16.0229 26.6287 15.9837C26.5871 15.8902 26.2584 15.8917 26.2177 15.9856C26.2004 16.0257 25.8448 16.3344 25.4275 16.6715C25.0103 17.0086 24.5843 17.3615 24.4809 17.4559C24.0925 17.81 23.4793 18.0957 22.7758 18.2503C22.0878 18.4015 22.0109 18.4009 21.3204 18.2397C20.6062 18.073 20.0165 17.7976 19.6417 17.4559C19.5383 17.3615 19.1123 17.0086 18.6951 16.6715C18.2778 16.3344 17.9222 16.0257 17.9049 15.9856C17.8627 15.8881 17.534 15.8919 17.4939 15.9903Z" fill="#89B13B"/>
</svg>
