<svg width="70" height="75" viewBox="0 0 70 75" fill="none" xmlns="http://www.w3.org/2000/svg">
<path d="M43.9495 26.1501C43.9723 25.7463 43.9852 25.3407 43.9852 24.937C43.9852 13.0396 34.1193 3.36029 21.9925 3.36029C9.86581 3.36029 0 13.0396 0 24.937C0 36.8346 9.86581 46.5139 21.9925 46.5139C22.404 46.5139 22.8185 46.5005 23.2292 46.4781C24.9194 36.0586 33.329 27.8081 43.9495 26.1501ZM23.1696 15.3686H20.8154C17.3451 15.3686 14.4748 17.9291 14.0589 21.225H20.8154C21.6048 21.225 22.2447 21.8529 22.2447 22.6273C22.2447 23.4017 21.6048 24.0295 20.8154 24.0295H14.0051V25.8442H20.8154C21.6048 25.8442 22.2447 26.4721 22.2447 27.2465C22.2447 28.0209 21.6048 28.6487 20.8154 28.6487H14.0589C14.4748 31.9449 17.3451 34.5053 20.8154 34.5053H23.1696C23.9589 34.5053 24.5988 35.1332 24.5988 35.9076C24.5988 36.682 23.9589 37.3098 23.1696 37.3098H20.8154C15.7675 37.3098 11.6133 33.4942 11.1855 28.6486H9.04467C8.25535 28.6486 7.6154 28.0208 7.6154 27.2464C7.6154 26.472 8.25535 25.8441 9.04467 25.8441H11.1466V24.0294H9.04467C8.25535 24.0294 7.6154 23.4015 7.6154 22.6271C7.6154 21.8527 8.25535 21.2249 9.04467 21.2249H11.1853C11.6131 16.3794 15.7675 12.5639 20.8153 12.5639H23.1694C27.8846 12.5639 31.8909 15.8675 32.6954 20.4188C32.8305 21.1819 32.3093 21.9076 31.5314 22.04C30.7548 22.1727 30.0136 21.6611 29.879 20.8981C29.3127 17.6942 26.4908 15.3686 23.1696 15.3686Z" fill="#89B13B"/>
<path d="M47.888 28.6489C35.6955 28.6489 25.7759 38.3809 25.7759 50.343C25.7759 62.305 35.6955 72.0369 47.888 72.0369C60.0806 72.0369 70 62.305 70 50.343C70 38.3809 60.0807 28.6489 47.888 28.6489ZM56.3797 45.1463C56.3797 45.9207 55.7397 46.5486 54.9504 46.5486C54.1611 46.5486 53.5211 45.9207 53.5211 45.1463V43.9915C53.5211 42.2177 52.0502 40.7744 50.2423 40.7744H45.5339C43.7259 40.7744 42.2548 42.2175 42.2548 43.9915V45.7236C42.2548 47.4974 43.7257 48.9407 45.5339 48.9407H50.2423C53.6266 48.9407 56.3798 51.6419 56.3798 54.9622V56.6946C56.3798 60.0149 53.6266 62.7161 50.2423 62.7161H49.3174V64.7783C49.3174 65.5527 48.6775 66.1805 47.8882 66.1805C47.0988 66.1805 46.4589 65.5527 46.4589 64.7783V62.7161H45.534C42.1497 62.7161 39.3964 60.0149 39.3964 56.6946V55.5396C39.3964 54.7652 40.0363 54.1374 40.8256 54.1374C41.615 54.1374 42.2549 54.7652 42.2549 55.5396V56.6946C42.2549 58.4684 43.7259 59.9116 45.534 59.9116H50.2424C52.0503 59.9116 53.5213 58.4686 53.5213 56.6946V54.9622C53.5213 53.1885 52.0503 51.7454 50.2424 51.7454H45.534C42.1497 51.7454 39.3964 49.0441 39.3964 45.7237V43.9917C39.3964 40.6713 42.1497 37.97 45.534 37.97H46.4589V35.9079C46.4589 35.1335 47.0988 34.5056 47.8882 34.5056C48.6775 34.5056 49.3174 35.1335 49.3174 35.9079V37.97H50.2423C53.6266 37.97 56.3798 40.6713 56.3798 43.9917L56.3797 45.1463Z" fill="#89B13B"/>
<path d="M24.6667 66.8468L24.5788 66.8615L24.6628 66.8214C24.6616 66.8122 24.6601 66.8034 24.6584 66.7946C24.6498 66.7527 24.6391 66.7118 24.6271 66.6722L24.6221 66.6534C24.6094 66.6126 24.5946 66.5728 24.5785 66.5337L24.572 66.5167C24.5566 66.4803 24.539 66.4448 24.5165 66.4015L24.5079 66.3841C24.491 66.3535 24.4723 66.324 24.4461 66.2822C24.4412 66.2742 24.4363 66.2662 24.4312 66.259C24.4169 66.2379 24.4011 66.2178 24.3757 66.185L24.3646 66.1704C24.3577 66.1608 24.3505 66.1512 24.3421 66.1413C24.3295 66.1263 24.3158 66.1118 24.3024 66.0977L24.2719 66.0646C24.2627 66.0543 24.2532 66.0439 24.2434 66.0341L18.0636 59.9714C17.4713 59.3908 16.5079 59.3908 15.9158 59.9714C15.629 60.2528 15.4711 60.6271 15.4711 61.0252C15.4711 61.4232 15.629 61.7974 15.9158 62.0785L19.503 65.5979H10.2219C7.81413 65.5979 5.85511 63.6759 5.85511 61.3137V48.6108C5.85511 47.7892 5.17377 47.1208 4.33642 47.1208C3.49907 47.1208 2.81773 47.7892 2.81773 48.6108V61.3137C2.81773 65.3189 6.13914 68.5777 10.2217 68.5777H19.5033L15.916 72.0971C15.3241 72.6781 15.3241 73.6233 15.916 74.2042C16.2029 74.4854 16.5844 74.6404 16.9899 74.6404C17.3955 74.6404 17.7767 74.4854 18.0639 74.2042L24.2435 68.1411C24.2543 68.1305 24.2644 68.1194 24.2746 68.108L24.3002 68.0802C24.3145 68.065 24.3288 68.0499 24.3422 68.034C24.3505 68.0244 24.358 68.0142 24.3655 68.0041L24.3866 67.9763C24.4019 67.9568 24.4172 67.9371 24.4312 67.9168C24.4365 67.9091 24.4412 67.9011 24.4533 67.8809C24.4721 67.8514 24.491 67.8222 24.5085 67.7901L24.5205 67.7659C24.539 67.7307 24.5566 67.6953 24.5717 67.6591L24.5784 67.6416C24.5944 67.6024 24.6093 67.5628 24.622 67.522L24.6267 67.5038C24.6389 67.4634 24.6497 67.4223 24.6581 67.3811C24.66 67.3722 24.6614 67.3628 24.6626 67.3534L24.5742 67.342L24.667 67.3269C24.6723 67.297 24.6774 67.2672 24.6804 67.2362C24.6855 67.1869 24.6881 67.1372 24.6881 67.0874C24.6881 67.0374 24.6855 66.9879 24.6804 66.9381C24.6775 66.9078 24.6722 66.8771 24.6667 66.8468Z" fill="#89B13B"/>
<path d="M59.6588 6.7023H50.3771L53.9644 3.18295C54.5563 2.60193 54.5563 1.65669 53.9644 1.07582C53.3722 0.495235 52.4087 0.495235 51.8167 1.07582L45.637 7.13893C45.6263 7.14948 45.6161 7.16061 45.6059 7.17203L45.5827 7.19718C45.5673 7.21322 45.552 7.22941 45.5382 7.24603C45.5304 7.25542 45.523 7.26496 45.5158 7.27479L45.4968 7.29951C45.4804 7.32061 45.4642 7.34157 45.4489 7.36353L45.4277 7.39793C45.4082 7.42771 45.3892 7.45791 45.3724 7.4887L45.3599 7.51414C45.3416 7.54911 45.324 7.58452 45.3085 7.62095L45.3017 7.63872C45.2858 7.67789 45.2708 7.71749 45.2584 7.75753L45.2537 7.77588C45.2415 7.81635 45.2304 7.85754 45.2222 7.89902C45.2204 7.90726 45.2192 7.91565 45.218 7.92403L45.3067 7.93545L45.215 7.94383C45.2092 7.97693 45.2036 8.01003 45.2001 8.04385C45.1951 8.09313 45.1924 8.14285 45.1924 8.19257C45.1924 8.24258 45.1951 8.29215 45.2001 8.34144C45.2036 8.37511 45.2092 8.40836 45.215 8.44145L45.3031 8.42671L45.218 8.46125L45.222 8.48568C45.2306 8.52759 45.2416 8.5685 45.2534 8.60853L45.2583 8.62674C45.2708 8.6675 45.2858 8.70739 45.3019 8.74671L45.3085 8.76419C45.324 8.80062 45.3416 8.83588 45.3627 8.87678L45.3723 8.89572C45.3894 8.92723 45.4084 8.95714 45.434 8.99747L45.4489 9.02146C45.4638 9.04299 45.4798 9.06381 45.5053 9.09633L45.5159 9.11049C45.5231 9.12032 45.5304 9.12986 45.5379 9.13867C45.5513 9.15472 45.5656 9.17004 45.5802 9.18507L45.6084 9.21571C45.6177 9.22597 45.6271 9.23638 45.637 9.24621L51.8167 15.3089C52.1036 15.5901 52.485 15.7451 52.8906 15.7451C53.296 15.7451 53.6774 15.5901 53.9645 15.3089C54.2514 15.0275 54.4093 14.6531 54.4093 14.2551C54.4093 13.8571 54.2514 13.4829 53.9645 13.2018L50.3772 9.6824H59.6589C62.0667 9.6824 64.0256 11.6044 64.0256 13.9666V26.6695C64.0256 27.491 64.7069 28.1595 65.5443 28.1595C66.3816 28.1595 67.0629 27.491 67.0629 26.6695V13.9666C67.0626 9.96092 63.7414 6.7023 59.6588 6.7023Z" fill="#89B13B"/>
</svg>
