<svg width="66" height="70" viewBox="0 0 66 70" fill="none" xmlns="http://www.w3.org/2000/svg">
<path d="M24.8184 58.2229C24.0001 59.8904 23.9445 61.7989 24.6309 63.8988H43.668C43.9087 62.9888 44.4462 61.2647 45.4261 59.4279C40.4434 58.5958 35.2731 55.9442 31.0671 53.2542C29.9313 53.6628 26.3178 55.1651 24.8184 58.2229Z" fill="#89B13B"/>
<path d="M27.2515 40.3868C27.5439 40.2158 27.7598 39.9515 27.8516 39.627C27.9425 39.3024 27.9008 38.9627 27.7329 38.6704C27.3492 38.0202 26.32 37.8713 25.7866 38.3857L19.8057 44.1317C16.4577 48.1901 12.5059 50.2664 8.73086 46.5841C8.49961 46.3601 7.05885 44.214 4.96236 43.668C4.11341 43.4458 3.20627 44.0138 2.9216 44.9284C4.10578 46.3205 9.08311 51.6745 14.6348 50.39C21.8986 48.7186 21.3439 44.6704 25.0769 41.6061C25.8726 40.9543 26.5992 40.5545 27.2515 40.3868Z" fill="#89B13B"/>
<path d="M50.756 53.8259C49.6462 53.3966 48.551 52.9264 47.4896 52.3766L27.513 42.0311C27.126 42.1654 26.6436 42.4576 26.1128 42.8916C25.2553 43.5953 24.4696 44.5402 23.7187 45.7326C26.1698 47.832 36.9493 56.6497 46.3567 57.8893C47.4286 56.2991 48.8631 54.795 50.756 53.8259ZM30.9779 47.3327C30.7586 47.7324 30.2598 47.8773 29.8621 47.6562L28.9922 47.171C28.5956 46.9499 28.4524 46.4462 28.6715 46.0451C28.8896 45.645 29.3865 45.4983 29.7873 45.7216L30.6572 46.2068C31.0536 46.4278 31.1969 46.9315 30.9779 47.3327ZM34.5305 49.3148C34.3113 49.7145 33.8124 49.8594 33.4148 49.6383L32.5448 49.1531C32.1483 48.932 32.0051 48.4283 32.2242 48.0272C32.4422 47.6282 32.9403 47.4815 33.34 47.7037L34.2099 48.1889C34.6063 48.41 34.7495 48.9137 34.5305 49.3148ZM38.0821 51.297C37.8628 51.6967 37.364 51.8416 36.9663 51.6205L36.0964 51.1353C35.6999 50.9142 35.5566 50.4105 35.7758 50.0094C35.9938 49.6104 36.4918 49.4626 36.8915 49.6859L37.7615 50.1711C38.158 50.3922 38.3012 50.8959 38.0821 51.297ZM41.6337 53.2792C41.4144 53.6789 40.9155 53.8238 40.5179 53.6027L39.648 53.1175C39.2514 52.8964 39.1082 52.3927 39.3273 51.9916C39.5453 51.5926 40.0434 51.4438 40.4431 51.6681L41.313 52.1533C41.7096 52.3744 41.8528 52.8781 41.6337 53.2792Z" fill="#89B13B"/>
<path d="M65.1854 61.6113C65.0608 59.0501 63.2352 56.7729 60.5961 56.2719C56.8423 55.5055 56.0132 55.5033 53.1925 54.6605C48.2376 55.907 46.0676 61.5816 45.3791 63.8986H59.1723C62.0272 63.8438 63.9521 63.1158 65.1854 61.6113Z" fill="#89B13B"/>
<path d="M65.7044 63.4237C64.1772 64.7924 62.0375 65.5 59.1884 65.5552H1.0039C0.662958 66.3801 0.538408 67.2321 0.654236 68.15C0.761071 68.9998 1.49964 69.6404 2.37285 69.6404H57.4293C61.6114 69.6404 67.2118 67.5399 65.768 63.5967L65.7044 63.4237Z" fill="#89B13B"/>
<path d="M22.9083 63.8988C22.2549 61.5684 22.3995 59.4127 23.3508 57.4787C24.7655 54.6035 27.6032 52.9481 29.3889 52.147C26.3261 50.063 23.9527 48.1105 22.8198 47.1398C19.296 52.0565 10.6069 55.6146 2.35146 46.7715C0.432801 53.0771 -1.01232 59.4116 0.988639 63.8988H22.9083Z" fill="#89B13B"/>
<path d="M41.3715 26.4645C42.0594 24.3616 42.002 22.4507 41.1806 20.781C39.6723 17.7156 36.0687 16.224 34.9355 15.8195C30.7295 18.5097 25.559 21.1615 20.576 21.9937C21.5559 23.8305 22.0935 25.5545 22.3341 26.4645H41.3715Z" fill="#89B13B"/>
<path d="M61.0385 6.23388C59.788 6.55962 58.5804 7.48706 57.3448 9.06695C57.3224 9.0972 57.2978 9.12415 57.2711 9.15C53.4579 12.8697 49.5052 10.7069 46.1323 6.62851L40.2154 0.951657C39.6809 0.436167 38.655 0.57958 38.2637 1.24398C37.9409 1.8098 38.1035 2.56976 38.7464 2.9494C40.8986 3.50147 42.908 6.07383 44.062 8.0394C44.8646 9.4349 46.8771 11.9208 51.3672 12.954C56.9106 14.2315 61.8989 8.88503 63.0816 7.49958C62.802 6.58162 61.888 6.00879 61.0385 6.23388Z" fill="#89B13B"/>
<path d="M65.0133 26.4645C67.0129 21.9806 65.5712 15.651 63.6522 9.34236C61.8762 11.2432 57.9064 14.8108 53.1306 14.8108C49.9354 14.8108 45.5642 13.0246 43.1832 9.70481C42.0506 10.6753 39.6768 12.6283 36.6133 14.7129C38.3988 15.5139 41.2366 17.1693 42.6513 20.0446C43.6027 21.9785 43.7472 24.1343 43.0939 26.4646H65.0133V26.4645Z" fill="#89B13B"/>
<path d="M8.57279 32.2062H63.6293C64.5025 32.2062 65.241 31.5656 65.3479 30.7168C65.4637 29.7981 65.339 28.946 64.9982 28.121H6.82964C3.9676 28.0657 1.82546 27.3581 0.297895 25.9896L0.234121 26.1635C-1.217 30.1242 4.38472 32.2062 8.57279 32.2062Z" fill="#89B13B"/>
<path d="M15.2454 16.3913C17.1386 17.3606 18.5734 18.8647 19.6454 20.455C29.0512 19.2159 39.8288 10.4007 42.2822 8.29942C41.5112 7.08144 40.7401 6.15441 39.8893 5.45632C39.2488 4.94165 38.8006 4.70103 38.4984 4.59199C18.3846 14.9202 18.5798 15.102 15.2454 16.3913ZM35.3449 8.77256L36.2148 8.28732C36.6135 8.06402 37.1116 8.21183 37.3306 8.61086C37.5497 9.01208 37.4065 9.51561 37.0099 9.73671L36.14 10.222C35.7426 10.4428 35.2436 10.2984 35.0242 9.89841C34.8051 9.49732 34.9483 8.99366 35.3449 8.77256ZM31.7922 10.7548L32.6622 10.2695C33.0618 10.0462 33.5589 10.194 33.7779 10.5931C33.997 10.9943 33.8538 11.4978 33.4573 11.7189L32.5873 12.2042C32.19 12.425 31.691 12.2806 31.4716 11.8806C31.2525 11.4794 31.3957 10.9759 31.7922 10.7548ZM28.2407 12.737L29.1106 12.2517C29.5093 12.0295 30.0072 12.1762 30.2264 12.5753C30.4455 12.9765 30.3023 13.48 29.9057 13.7011L29.0358 14.1864C28.6384 14.4072 28.1394 14.2628 27.92 13.8628C27.7009 13.4616 27.8441 12.9581 28.2407 12.737ZM24.6891 14.7192L25.559 14.2339C25.9578 14.0106 26.4558 14.1585 26.6748 14.5575C26.8939 14.9587 26.7507 15.4622 26.3542 15.6833L25.4842 16.1686C25.0869 16.3894 24.5879 16.245 24.3685 15.845C24.1493 15.4438 24.2926 14.9401 24.6891 14.7192Z" fill="#89B13B"/>
<path d="M12.8085 17.2261C9.97049 18.0739 9.08093 18.0869 5.40809 18.8366C2.77443 19.3381 0.941626 21.6076 0.816532 24.1772C2.0499 25.6816 3.97591 26.4096 6.84559 26.4646H20.6212C19.9293 24.1457 17.7515 18.4687 12.8085 17.2261Z" fill="#89B13B"/>
</svg>
