<svg width="56" height="75" viewBox="0 0 56 75" fill="none" xmlns="http://www.w3.org/2000/svg">
<path d="M38.6256 22.3201C35.8545 22.3201 33.6 20.0508 33.6 17.2615V0.640381H7.89744C3.54279 0.640381 0 4.2064 0 8.5896V66.6912C0 71.0744 3.54279 74.6404 7.89744 74.6404H48.1026C52.4572 74.6404 56 71.0744 56 66.6912V22.3201H38.6256ZM11.7744 52.6716H22.2162C23.4057 52.6716 24.3701 53.6423 24.3701 54.8396C24.3701 56.0369 23.4057 57.0076 22.2162 57.0076H11.7744C10.5849 57.0076 9.62051 56.0369 9.62051 54.8396C9.62051 53.6423 10.5849 52.6716 11.7744 52.6716ZM9.62051 43.2771C9.62051 42.0798 10.5849 41.1091 11.7744 41.1091H43.3641C44.5536 41.1091 45.518 42.0798 45.518 43.2771C45.518 44.4744 44.5536 45.4451 43.3641 45.4451H11.7744C10.5849 45.4451 9.62051 44.4744 9.62051 43.2771ZM43.3641 29.5466C44.5536 29.5466 45.518 30.5173 45.518 31.7146C45.518 32.9119 44.5536 33.8826 43.3641 33.8826H11.7744C10.5849 33.8826 9.62051 32.9119 9.62051 31.7146C9.62051 30.5173 10.5849 29.5466 11.7744 29.5466H43.3641Z" fill="#89B13B"/>
<path d="M37.9077 17.2615C37.9077 17.6599 38.2298 17.9841 38.6256 17.9841H55.04C54.646 17.2519 54.1391 16.5794 53.5301 15.9994L39.6848 2.815C39.1474 2.30336 38.549 1.87656 37.9078 1.53951V17.2615H37.9077Z" fill="#89B13B"/>
</svg>
