<svg width="75" height="75" viewBox="0 0 75 75" fill="none" xmlns="http://www.w3.org/2000/svg">
<path d="M-3.07291e-06 4.34049L-1.61729e-07 70.9404C-6.46903e-08 73.1604 1.49994 74.6404 3.74994 74.6404L26.2499 74.6404C28.4999 74.6404 29.9999 73.1604 29.9999 70.9404L29.9999 63.5404L22.5 63.5404L22.5 67.2403L7.50005 67.2403L7.50005 8.04043L22.5 8.04043L22.5 11.7404L30 11.7404L30 4.34032C30 2.12031 28.5001 0.64038 26.2501 0.64038L3.74994 0.640381C1.49994 0.640381 -3.16995e-06 2.12049 -3.07291e-06 4.34049Z" fill="#89B13B"/>
<path d="M18.75 56.1403L71.2501 56.1403C73.5001 56.1403 75 54.6604 75 52.4404L75 48.7405L14.9999 48.7405L14.9999 52.4404C14.9999 54.6604 16.5 56.1403 18.75 56.1403Z" fill="#89B13B"/>
<path d="M14.9999 22.8404L14.9999 41.3404L74.9998 41.3404L74.9998 22.8404C75 20.9905 73.1249 19.1404 71.2499 19.1404L18.75 19.1404C16.5 19.1404 14.9999 20.9905 14.9999 22.8404ZM41.25 30.2404C41.25 32.0905 39.375 33.9404 37.5001 33.9404C35.6252 33.9404 33.75 32.0905 33.75 30.2404C33.75 28.3904 35.625 26.5405 37.4999 26.5405C39.3748 26.5405 41.25 28.3904 41.25 30.2404ZM30 30.2404C30 32.0905 28.125 33.9404 26.2501 33.9404C24.3752 33.9404 22.5 32.0905 22.5 30.2404C22.5 28.3904 24.375 26.5405 26.2499 26.5405C28.1248 26.5405 30 28.3904 30 30.2404Z" fill="#89B13B"/>
</svg>
