<svg width="77" height="75" viewBox="0 0 77 75" fill="none" xmlns="http://www.w3.org/2000/svg">
<path d="M26.8178 50.5008L25.1614 47.169L23.505 50.5008C23.3525 50.8068 23.1273 51.0714 22.8489 51.272C22.5706 51.4726 22.2472 51.6031 21.9068 51.6523L18.2023 52.1865L20.8821 54.7795C21.1277 55.018 21.3112 55.3122 21.4168 55.6366C21.5224 55.9611 21.547 56.3062 21.4884 56.6422L20.8555 60.3048L24.1731 58.577C24.478 58.4181 24.8171 58.3352 25.1614 58.3352C25.5057 58.3352 25.8448 58.4181 26.1497 58.577L29.4625 60.3061L28.8295 56.6434C28.7709 56.3074 28.7955 55.9623 28.9011 55.6378C29.0068 55.3134 29.1902 55.0192 29.4358 54.7807L32.1157 52.1877L28.4112 51.6535C28.0715 51.6034 27.749 51.4724 27.4715 51.2717C27.194 51.0709 26.9697 50.8064 26.8178 50.5008Z" fill="#89B13B"/>
<path d="M67.8897 46.3483C68.2877 45.9537 68.5115 45.4183 68.5118 44.8599V34.0307C68.5119 33.7541 68.4571 33.4802 68.3506 33.2247C68.244 32.9691 68.0877 32.7369 67.8906 32.5414C67.6935 32.3458 67.4595 32.1907 67.202 32.0849C66.9445 31.9792 66.6684 31.9248 66.3897 31.925H47.8976V35.5347C47.8976 36.0932 47.674 36.6288 47.2761 37.0237C46.8781 37.4186 46.3384 37.6404 45.7756 37.6404C45.2128 37.6404 44.673 37.4186 44.275 37.0237C43.8771 36.6288 43.6535 36.0932 43.6535 35.5347V31.925H2.12205C1.84333 31.9248 1.56732 31.9792 1.30979 32.0849C1.05226 32.1907 0.81826 32.3458 0.621178 32.5414C0.424096 32.7369 0.267793 32.9691 0.161207 33.2247C0.0546205 33.4802 -0.000159056 33.7541 3.46885e-07 34.0307V44.8599C0.000281307 45.4183 0.224038 45.9537 0.622063 46.3483L0.83063 46.5553C1.72355 47.4368 2.43142 48.4852 2.91327 49.64C3.39512 50.7947 3.64138 52.0329 3.63779 53.2827C3.63002 55.8088 2.61873 58.23 0.823354 60.0209L0.622063 60.2206C0.224927 60.6144 0.00124444 61.1483 3.46885e-07 61.7054V72.5347C-0.000159056 72.8113 0.0546205 73.0852 0.161207 73.3407C0.267793 73.5962 0.424096 73.8284 0.621178 74.024C0.81826 74.2196 1.05226 74.3747 1.30979 74.4804C1.56732 74.5862 1.84333 74.6405 2.12205 74.6404H43.6535V71.0306C43.6535 70.4722 43.8771 69.9366 44.275 69.5417C44.673 69.1468 45.2128 68.9249 45.7756 68.9249C46.3384 68.9249 46.8781 69.1468 47.2761 69.5417C47.674 69.9366 47.8976 70.4722 47.8976 71.0306V74.6404H66.3897C66.6684 74.6405 66.9445 74.5862 67.202 74.4804C67.4595 74.3747 67.6935 74.2196 67.8906 74.024C68.0877 73.8284 68.244 73.5962 68.3506 73.3407C68.4571 73.0852 68.5119 72.8113 68.5118 72.5347V61.7054C68.5115 61.1471 68.2877 60.6117 67.8897 60.217L67.6884 60.0173C65.8939 58.2272 64.8827 55.8075 64.874 53.2827C64.8704 52.0329 65.1166 50.7947 65.5985 49.64C66.0803 48.4852 66.7882 47.4368 67.6811 46.5553L67.8897 46.3483ZM38.1617 52.2238L33.2009 57.0224L34.3723 63.7979C34.4393 64.1851 34.3957 64.5832 34.2465 64.9472C34.0974 65.3112 33.8486 65.6265 33.5283 65.8574C33.2079 66.0884 32.8289 66.2258 32.434 66.2542C32.039 66.2825 31.644 66.2007 31.2935 66.0179L25.1614 62.8196L19.0293 66.0179C18.6787 66.202 18.283 66.285 17.8873 66.2572C17.4916 66.2295 17.1116 66.0923 16.7905 65.8611C16.4694 65.63 16.22 65.3141 16.0707 64.9494C15.9214 64.5847 15.878 64.1858 15.9457 63.7979L17.117 57.0224L12.1611 52.2238C11.8776 51.9496 11.677 51.6022 11.5821 51.2208C11.4871 50.8394 11.5016 50.4393 11.6238 50.0656C11.7461 49.692 11.9712 49.3597 12.2738 49.1064C12.5764 48.853 12.9444 48.6888 13.3361 48.6321L20.1922 47.643L23.2588 41.4788C23.4341 41.1266 23.7052 40.8302 24.0414 40.6229C24.3776 40.4156 24.7656 40.3057 25.1614 40.3057C25.5572 40.3057 25.9452 40.4156 26.2814 40.6229C26.6176 40.8302 26.8887 41.1266 27.064 41.4788L30.1331 47.643L36.9891 48.6321C37.3806 48.6891 37.7483 48.8537 38.0506 49.1072C38.3529 49.3606 38.5777 49.6929 38.6997 50.0665C38.8217 50.4401 38.8359 50.8401 38.7408 51.2213C38.6458 51.6026 38.4451 51.9498 38.1617 52.2238ZM47.8976 61.6092C47.8976 62.1676 47.674 62.7032 47.2761 63.0981C46.8781 63.493 46.3384 63.7149 45.7756 63.7149C45.2128 63.7149 44.673 63.493 44.275 63.0981C43.8771 62.7032 43.6535 62.1676 43.6535 61.6092V57.9994C43.6535 57.441 43.8771 56.9054 44.275 56.5105C44.673 56.1156 45.2128 55.8937 45.7756 55.8937C46.3384 55.8937 46.8781 56.1156 47.2761 56.5105C47.674 56.9054 47.8976 57.441 47.8976 57.9994V61.6092ZM47.8976 48.5731C47.8976 49.1316 47.674 49.6672 47.2761 50.0621C46.8781 50.457 46.3384 50.6788 45.7756 50.6788C45.2128 50.6788 44.673 50.457 44.275 50.0621C43.8771 49.6672 43.6535 49.1316 43.6535 48.5731V44.9634C43.6535 44.4049 43.8771 43.8693 44.275 43.4744C44.673 43.0796 45.2128 42.8577 45.7756 42.8577C46.3384 42.8577 46.8781 43.0796 47.2761 43.4744C47.674 43.8693 47.8976 44.4049 47.8976 44.9634V48.5731ZM58.5078 64.1119C58.5078 64.6704 58.2843 65.206 57.8863 65.6009C57.4883 65.9958 56.9486 66.2176 56.3858 66.2176C55.823 66.2176 55.2832 65.9958 54.8853 65.6009C54.4873 65.206 54.2637 64.6704 54.2637 64.1119V42.4534C54.2637 41.8949 54.4873 41.3594 54.8853 40.9645C55.2832 40.5696 55.823 40.3477 56.3858 40.3477C56.9486 40.3477 57.4883 40.5696 57.8863 40.9645C58.2843 41.3594 58.5078 41.8949 58.5078 42.4534V64.1119Z" fill="#89B13B"/>
<path d="M76.3779 28.4837L68.6609 20.8262C68.4639 20.6308 68.23 20.4758 67.9727 20.3701C67.7153 20.2644 67.4395 20.21 67.1609 20.2101H66.8748C64.3302 20.2048 61.8904 19.2043 60.0842 17.4258C59.1912 16.5443 58.4832 15.4959 58.0012 14.3411C57.5191 13.1864 57.2726 11.9483 57.2758 10.6984V10.4036C57.2759 10.1272 57.2211 9.85351 57.1146 9.59812C57.0081 9.34274 56.8519 9.11067 56.655 8.91519L48.9404 1.2577C48.7435 1.062 48.5096 0.906751 48.2521 0.800826C47.9946 0.694902 47.7186 0.640381 47.4398 0.640381C47.1611 0.640381 46.8851 0.694902 46.6276 0.800826C46.3701 0.906751 46.1362 1.062 45.9393 1.2577L32.8638 14.2324L35.4357 16.7845C35.6415 16.9779 35.8061 17.2102 35.9198 17.4678C36.0336 17.7254 36.0942 18.003 36.0981 18.2842C36.102 18.5654 36.049 18.8445 35.9424 19.1051C35.8358 19.3657 35.6777 19.6024 35.4774 19.8014C35.277 20.0003 35.0386 20.1574 34.7761 20.2634C34.5136 20.3694 34.2323 20.4222 33.9489 20.4185C33.6655 20.4149 33.3857 20.355 33.1261 20.2423C32.8664 20.1296 32.6321 19.9665 32.437 19.7625L29.8651 17.2104L19.2779 27.7136H40.4474L39.1511 26.4273C38.7532 26.0324 38.5296 25.4968 38.5296 24.9383C38.5296 24.3798 38.7532 23.8442 39.1511 23.4493C39.5491 23.0543 40.0889 22.8325 40.6517 22.8325C41.2146 22.8325 41.7543 23.0543 42.1523 23.4493L44.7242 26.0026C44.9476 26.2248 45.118 26.4938 45.2229 26.7898C45.3278 27.0859 45.3646 27.4016 45.3305 27.7136H55.4521L44.8673 17.2104C44.6703 17.0149 44.5139 16.7827 44.4073 16.5272C44.3007 16.2717 44.2458 15.9979 44.2458 15.7214C44.2458 15.4448 44.3007 15.171 44.4073 14.9155C44.5139 14.66 44.6703 14.4279 44.8673 14.2324C45.0644 14.0368 45.2983 13.8817 45.5558 13.7759C45.8133 13.67 46.0892 13.6156 46.3679 13.6156C46.6466 13.6156 46.9226 13.67 47.18 13.7759C47.4375 13.8817 47.6714 14.0368 47.8685 14.2324L61.4496 27.7088H66.3897C68.0784 27.7107 69.6972 28.3775 70.8908 29.5628C72.0844 30.7481 72.7552 32.355 72.7559 34.0307V35.0558L76.3779 31.4617C76.5751 31.2663 76.7316 31.0341 76.8383 30.7786C76.9451 30.5231 77 30.2493 77 29.9727C77 29.6961 76.9451 29.4222 76.8383 29.1667C76.7316 28.9112 76.5751 28.6791 76.3779 28.4837Z" fill="#89B13B"/>
</svg>
