<svg width="22" height="20" viewBox="0 0 22 20" fill="none" xmlns="http://www.w3.org/2000/svg">
<path fill-rule="evenodd" clip-rule="evenodd" d="M5.77329 1.43236C5.39199 0.58478 4.99066 0.567786 4.62791 0.55294C4.33129 0.540243 3.9916 0.541025 3.65249 0.541025C3.31318 0.541025 2.76164 0.668483 2.29536 1.17783C1.8287 1.68718 0.513672 2.91841 0.513672 5.42256C0.513672 7.92701 2.33775 10.3468 2.59199 10.6867C2.84652 11.0261 6.11318 16.3292 11.2867 18.3694C15.5863 20.0648 16.4612 19.7276 17.3944 19.6428C18.3277 19.5579 20.4058 18.4118 20.83 17.2232C21.2541 16.0349 21.2541 15.0163 21.1269 14.8034C20.9996 14.5912 20.6603 14.464 20.1513 14.2094C19.6422 13.9549 17.1399 12.7234 16.6732 12.5537C16.2067 12.3841 15.8673 12.2992 15.528 12.8087C15.1886 13.3178 14.2137 14.464 13.9167 14.8034C13.6198 15.1435 13.3229 15.1859 12.8138 14.9314C12.3048 14.6761 10.6655 14.1392 8.72077 12.4053C7.20767 11.0563 6.18614 9.3902 5.88912 8.88066C5.59221 8.3716 5.85738 8.09588 6.11269 7.84213C6.34124 7.61408 6.62175 7.24801 6.87627 6.9508C7.13022 6.65359 7.21509 6.44145 7.38474 6.10205C7.5544 5.76216 7.46962 5.46495 7.34235 5.21042C7.21509 4.95589 6.22589 2.43875 5.77329 1.43236Z" fill="#042B62"/>
</svg>
