<svg width="22" height="21" viewBox="0 0 22 21" fill="none" xmlns="http://www.w3.org/2000/svg">
<path fill-rule="evenodd" clip-rule="evenodd" d="M6.02524 1.85179C5.64394 1.00421 5.24261 0.98722 4.87987 0.972374C4.58324 0.959677 4.24355 0.960459 3.90444 0.960459C3.56513 0.960459 3.01359 1.08792 2.54732 1.59726C2.08065 2.10661 0.765625 3.33784 0.765625 5.84199C0.765625 8.34644 2.58971 10.7662 2.84394 11.1061C3.09847 11.4455 6.36513 16.7486 11.5386 18.7888C15.8382 20.4843 16.7132 20.147 17.6464 20.0622C18.5796 19.9774 20.6577 18.8312 21.0819 17.6427C21.5061 16.4543 21.5061 15.4357 21.3788 15.2228C21.2516 15.0106 20.9123 14.8834 20.4032 14.6289C19.8942 14.3743 17.3919 13.1428 16.9252 12.9732C16.4586 12.8035 16.1192 12.7186 15.7799 13.2282C15.4405 13.7372 14.4657 14.8834 14.1687 15.2228C13.8717 15.563 13.5748 15.6054 13.0658 15.3508C12.5567 15.0955 10.9174 14.5586 8.97272 12.8247C7.45962 11.4757 6.43809 9.80964 6.14108 9.30009C5.84416 8.79104 6.10934 8.51531 6.36464 8.26157C6.59319 8.03351 6.8737 7.66744 7.12823 7.37023C7.38217 7.07302 7.46704 6.86089 7.6367 6.52148C7.80635 6.18159 7.72157 5.88438 7.59431 5.62986C7.46704 5.37533 6.47784 2.85818 6.02524 1.85179Z" fill="#89B13B"/>
</svg>
