<svg width="24" height="21" viewBox="0 0 24 21" fill="none" xmlns="http://www.w3.org/2000/svg">
<path fill-rule="evenodd" clip-rule="evenodd" d="M2.16266 9.20665C8.44147 6.47108 12.6283 4.66761 14.7232 3.79627C20.7046 1.30841 21.9475 0.876239 22.7576 0.861969C22.9358 0.85883 23.3341 0.902986 23.5922 1.11238C23.8101 1.28919 23.87 1.52803 23.8987 1.69566C23.9274 1.86329 23.9631 2.24516 23.9347 2.54355C23.6106 5.94924 22.2081 14.214 21.4946 18.0284C21.1927 19.6424 20.5982 20.1836 20.0226 20.2366C18.7719 20.3517 17.8221 19.41 16.6107 18.6159C14.715 17.3733 13.6441 16.5997 11.8041 15.3872C9.67759 13.9858 11.0561 13.2156 12.268 11.9569C12.5851 11.6275 18.096 6.61494 18.2027 6.16022C18.216 6.10335 18.2284 5.89137 18.1025 5.77943C17.9765 5.66749 17.7907 5.70577 17.6565 5.73621C17.4664 5.77937 14.4381 7.78097 8.57161 11.741C7.71203 12.3313 6.93345 12.6189 6.23588 12.6038C5.46685 12.5872 3.98756 12.169 2.88786 11.8115C1.53903 11.373 0.467005 11.1412 0.560354 10.3966C0.608976 10.0088 1.14308 9.61211 2.16266 9.20665Z" fill="#89B13B"/>
</svg>
