<svg width="26" height="26" viewBox="0 0 26 26" fill="none" xmlns="http://www.w3.org/2000/svg">
<path fill-rule="evenodd" clip-rule="evenodd" d="M6.73982 13.0777C6.73982 9.48214 9.6545 6.56745 13.25 6.56745C16.8455 6.56745 19.7602 9.48214 19.7602 13.0777C19.7602 16.6731 16.8455 19.5878 13.25 19.5878C9.6545 19.5878 6.73982 16.6731 6.73982 13.0777ZM13.25 17.3035C10.9161 17.3035 9.02409 15.4116 9.02409 13.0777C9.02409 10.7437 10.9161 8.85173 13.25 8.85173C15.5839 8.85173 17.4759 10.7437 17.4759 13.0777C17.4759 15.4116 15.5839 17.3035 13.25 17.3035Z" fill="#B13B62"/>
<path d="M20.0174 7.83155C20.8576 7.83155 21.5387 7.15046 21.5387 6.31025C21.5387 5.47003 20.8576 4.78889 20.0174 4.78889C19.1772 4.78889 18.4961 5.47003 18.4961 6.31025C18.4961 7.15046 19.1772 7.83155 20.0174 7.83155Z" fill="#B13B62"/>
<path fill-rule="evenodd" clip-rule="evenodd" d="M13.25 0.399902C9.80694 0.399902 9.3752 0.414496 8.02299 0.476194C6.67359 0.537741 5.752 0.752072 4.9456 1.06549C4.11193 1.38943 3.40492 1.82292 2.70008 2.52772C1.99529 3.23256 1.56179 3.93957 1.23786 4.77324C0.924435 5.57964 0.710104 6.50123 0.648557 7.85062C0.58686 9.20284 0.572266 9.63457 0.572266 13.0777C0.572266 16.5207 0.58686 16.9524 0.648557 18.3046C0.710104 19.654 0.924435 20.5756 1.23786 21.382C1.56179 22.2157 1.99529 22.9227 2.70008 23.6276C3.40492 24.3323 4.11193 24.7658 4.9456 25.0898C5.752 25.4032 6.67359 25.6175 8.02299 25.6791C9.3752 25.7408 9.80694 25.7554 13.25 25.7554C16.6931 25.7554 17.1248 25.7408 18.477 25.6791C19.8264 25.6175 20.748 25.4032 21.5544 25.0898C22.3881 24.7658 23.0951 24.3323 23.7999 23.6276C24.5047 22.9227 24.9382 22.2157 25.2622 21.382C25.5756 20.5756 25.7899 19.654 25.8514 18.3046C25.9131 16.9524 25.9277 16.5207 25.9277 13.0777C25.9277 9.63457 25.9131 9.20284 25.8514 7.85062C25.7899 6.50123 25.5756 5.57964 25.2622 4.77324C24.9382 3.93957 24.5047 3.23256 23.7999 2.52772C23.0951 1.82292 22.3881 1.38943 21.5544 1.06549C20.748 0.752072 19.8264 0.537741 18.477 0.476194C17.1248 0.414496 16.6931 0.399902 13.25 0.399902ZM13.25 2.68417C16.6351 2.68417 17.0361 2.69711 18.3729 2.7581C19.609 2.81446 20.2802 3.021 20.727 3.19461C21.3187 3.4246 21.7411 3.69932 22.1847 4.14298C22.6283 4.58659 22.903 5.00891 23.133 5.60067C23.3066 6.0474 23.5132 6.71868 23.5695 7.95474C23.6305 9.29156 23.6435 9.69255 23.6435 13.0777C23.6435 16.4627 23.6305 16.8637 23.5695 18.2005C23.5132 19.4366 23.3066 20.1079 23.133 20.5546C22.903 21.1464 22.6283 21.5687 22.1847 22.0123C21.7411 22.456 21.3187 22.7307 20.727 22.9607C20.2802 23.1343 19.609 23.3408 18.3729 23.3972C17.0363 23.4582 16.6353 23.4711 13.25 23.4711C9.86466 23.4711 9.46378 23.4582 8.12711 23.3972C6.89104 23.3408 6.21977 23.1343 5.77304 22.9607C5.18127 22.7307 4.75895 22.456 4.31534 22.0123C3.87173 21.5687 3.59696 21.1464 3.36698 20.5546C3.19336 20.1079 2.98683 19.4366 2.93047 18.2005C2.86947 16.8637 2.85654 16.4627 2.85654 13.0777C2.85654 9.69255 2.86947 9.29156 2.93047 7.95474C2.98683 6.71868 3.19336 6.0474 3.36698 5.60067C3.59696 5.00891 3.87168 4.58659 4.31534 4.14298C4.75895 3.69932 5.18127 3.4246 5.77304 3.19461C6.21977 3.021 6.89104 2.81446 8.12711 2.7581C9.46393 2.69711 9.86491 2.68417 13.25 2.68417Z" fill="#B13B62"/>
</svg>
