<svg width="22" height="20" viewBox="0 0 22 20" fill="none" xmlns="http://www.w3.org/2000/svg">
<path fill-rule="evenodd" clip-rule="evenodd" d="M6.02329 1.01C5.64199 0.162417 5.24066 0.145423 4.87791 0.130577C4.58129 0.11788 4.2416 0.118662 3.90249 0.118662C3.56318 0.118662 3.01164 0.24612 2.54536 0.755468C2.0787 1.26482 0.763672 2.49604 0.763672 5.0002C0.763672 7.50465 2.58775 9.92442 2.84199 10.2643C3.09652 10.6037 6.36318 15.9068 11.5367 17.947C15.8363 19.6425 16.7112 19.3052 17.6444 19.2204C18.5777 19.1356 20.6558 17.9894 21.08 16.8009C21.5041 15.6125 21.5041 14.5939 21.3769 14.381C21.2496 14.1689 20.9103 14.0416 20.4013 13.7871C19.8922 13.5325 17.3899 12.301 16.9232 12.1314C16.4567 11.9617 16.1173 11.8768 15.778 12.3864C15.4386 12.8954 14.4637 14.0416 14.1667 14.381C13.8698 14.7212 13.5729 14.7636 13.0638 14.509C12.5548 14.2537 10.9155 13.7168 8.97077 11.9829C7.45767 10.6339 6.43614 8.96784 6.13912 8.45829C5.84221 7.94924 6.10738 7.67352 6.36269 7.41977C6.59124 7.19171 6.87175 6.82565 7.12627 6.52844C7.38022 6.23123 7.46509 6.01909 7.63474 5.67969C7.8044 5.3398 7.71962 5.04259 7.59235 4.78806C7.46509 4.53353 6.47589 2.01639 6.02329 1.01Z" fill="#B13B62"/>
</svg>
