<svg width="24" height="20" viewBox="0 0 24 20" fill="none" xmlns="http://www.w3.org/2000/svg">
<path fill-rule="evenodd" clip-rule="evenodd" d="M1.91266 8.78722C8.19147 6.05164 12.3783 4.24818 14.4732 3.37684C20.4546 0.888974 21.6975 0.456805 22.5076 0.442535C22.6858 0.439396 23.0841 0.483553 23.3422 0.692945C23.5601 0.869752 23.62 1.10859 23.6487 1.27623C23.6774 1.44386 23.7131 1.82573 23.6847 2.12411C23.3606 5.52981 21.9581 13.7945 21.2446 17.609C20.9427 19.223 20.3482 19.7642 19.7726 19.8171C18.5219 19.9322 17.5721 18.9905 16.3607 18.1964C14.465 16.9538 13.3941 16.1803 11.5541 14.9677C9.42759 13.5664 10.8061 12.7962 12.018 11.5375C12.3351 11.2081 17.846 6.19551 17.9527 5.74079C17.966 5.68392 17.9784 5.47193 17.8525 5.36C17.7265 5.24806 17.5407 5.28634 17.4065 5.31678C17.2164 5.35993 14.1881 7.36153 8.32161 11.3216C7.46203 11.9118 6.68345 12.1994 5.98588 12.1843C5.21685 12.1677 3.73756 11.7495 2.63786 11.3921C1.28903 10.9536 0.217005 10.7218 0.310354 9.97717C0.358976 9.58932 0.893078 9.19267 1.91266 8.78722Z" fill="#042B62"/>
</svg>
