<svg width="24" height="20" viewBox="0 0 24 20" fill="none" xmlns="http://www.w3.org/2000/svg">
<path fill-rule="evenodd" clip-rule="evenodd" d="M2.16266 8.36486C8.44147 5.62928 12.6283 3.82582 14.7232 2.95447C20.7046 0.46661 21.9475 0.0344421 22.7576 0.0201717C22.9358 0.0170331 23.3341 0.0611893 23.5922 0.270582C23.8101 0.447389 23.87 0.68623 23.8987 0.853862C23.9274 1.02149 23.9631 1.40337 23.9347 1.70175C23.6106 5.10744 22.2081 13.3722 21.4946 17.1866C21.1927 18.8006 20.5982 19.3418 20.0226 19.3948C18.7719 19.5099 17.8221 18.5682 16.6107 17.7741C14.715 16.5315 13.6441 15.7579 11.8041 14.5454C9.67759 13.144 11.0561 12.3738 12.268 11.1151C12.5851 10.7857 18.096 5.77314 18.2027 5.31843C18.216 5.26156 18.2284 5.04957 18.1025 4.93763C17.9765 4.8257 17.7907 4.86398 17.6565 4.89442C17.4664 4.93757 14.4381 6.93917 8.57161 10.8992C7.71203 11.4895 6.93345 11.7771 6.23588 11.762C5.46685 11.7454 3.98756 11.3272 2.88786 10.9697C1.53903 10.5312 0.467005 10.2994 0.560354 9.55481C0.608976 9.16696 1.14308 8.77031 2.16266 8.36486Z" fill="#B13B62"/>
</svg>
