<svg width="26" height="27" viewBox="0 0 26 27" fill="none" xmlns="http://www.w3.org/2000/svg">
<path fill-rule="evenodd" clip-rule="evenodd" d="M6.48982 13.5C6.48982 9.9045 9.4045 6.98982 13 6.98982C16.5955 6.98982 19.5102 9.9045 19.5102 13.5C19.5102 17.0955 16.5955 20.0102 13 20.0102C9.4045 20.0102 6.48982 17.0955 6.48982 13.5ZM13 17.7259C10.6661 17.7259 8.77409 15.8339 8.77409 13.5C8.77409 11.1661 10.6661 9.27409 13 9.27409C15.3339 9.27409 17.2259 11.1661 17.2259 13.5C17.2259 15.8339 15.3339 17.7259 13 17.7259Z" fill="#042B62"/>
<path d="M19.7674 8.25391C20.6076 8.25391 21.2887 7.57282 21.2887 6.73261C21.2887 5.89239 20.6076 5.21125 19.7674 5.21125C18.9272 5.21125 18.2461 5.89239 18.2461 6.73261C18.2461 7.57282 18.9272 8.25391 19.7674 8.25391Z" fill="#042B62"/>
<path fill-rule="evenodd" clip-rule="evenodd" d="M13 0.822266C9.55694 0.822266 9.1252 0.83686 7.77299 0.898557C6.42359 0.960104 5.502 1.17444 4.6956 1.48786C3.86193 1.81179 3.15492 2.24529 2.45008 2.95008C1.74529 3.65492 1.31179 4.36193 0.987855 5.1956C0.674435 6.002 0.460104 6.92359 0.398557 8.27299C0.33686 9.6252 0.322266 10.0569 0.322266 13.5C0.322266 16.9431 0.33686 17.3748 0.398557 18.727C0.460104 20.0764 0.674435 20.998 0.987855 21.8044C1.31179 22.6381 1.74529 23.3451 2.45008 24.0499C3.15492 24.7547 3.86193 25.1882 4.6956 25.5122C5.502 25.8256 6.42359 26.0399 7.77299 26.1014C9.1252 26.1631 9.55694 26.1777 13 26.1777C16.4431 26.1777 16.8748 26.1631 18.227 26.1014C19.5764 26.0399 20.498 25.8256 21.3044 25.5122C22.1381 25.1882 22.8451 24.7547 23.5499 24.0499C24.2547 23.3451 24.6882 22.6381 25.0122 21.8044C25.3256 20.998 25.5399 20.0764 25.6014 18.727C25.6631 17.3748 25.6777 16.9431 25.6777 13.5C25.6777 10.0569 25.6631 9.6252 25.6014 8.27299C25.5399 6.92359 25.3256 6.002 25.0122 5.1956C24.6882 4.36193 24.2547 3.65492 23.5499 2.95008C22.8451 2.24529 22.1381 1.81179 21.3044 1.48786C20.498 1.17444 19.5764 0.960104 18.227 0.898557C16.8748 0.83686 16.4431 0.822266 13 0.822266ZM13 3.10654C16.3851 3.10654 16.7861 3.11947 18.1229 3.18046C19.359 3.23683 20.0302 3.44336 20.477 3.61698C21.0687 3.84696 21.4911 4.12168 21.9347 4.56534C22.3783 5.00895 22.653 5.43127 22.883 6.02304C23.0566 6.46976 23.2632 7.14104 23.3195 8.37711C23.3805 9.71392 23.3935 10.1149 23.3935 13.5C23.3935 16.8851 23.3805 17.2861 23.3195 18.6229C23.2632 19.859 23.0566 20.5302 22.883 20.977C22.653 21.5687 22.3783 21.9911 21.9347 22.4347C21.4911 22.8783 21.0687 23.153 20.477 23.383C20.0302 23.5566 19.359 23.7632 18.1229 23.8195C16.7863 23.8805 16.3853 23.8935 13 23.8935C9.61466 23.8935 9.21378 23.8805 7.87711 23.8195C6.64104 23.7632 5.96977 23.5566 5.52304 23.383C4.93127 23.153 4.50895 22.8783 4.06534 22.4347C3.62173 21.9911 3.34696 21.5687 3.11698 20.977C2.94336 20.5302 2.73683 19.859 2.68047 18.6229C2.61947 17.2861 2.60654 16.8851 2.60654 13.5C2.60654 10.1149 2.61947 9.71392 2.68047 8.37711C2.73683 7.14104 2.94336 6.46976 3.11698 6.02304C3.34696 5.43127 3.62168 5.00895 4.06534 4.56534C4.50895 4.12168 4.93127 3.84696 5.52304 3.61698C5.96977 3.44336 6.64104 3.23683 7.87711 3.18046C9.21393 3.11947 9.61491 3.10654 13 3.10654Z" fill="#042B62"/>
</svg>
