<svg width="26" height="26" viewBox="0 0 26 26" fill="none" xmlns="http://www.w3.org/2000/svg">
<path fill-rule="evenodd" clip-rule="evenodd" d="M6.73786 12.9195C6.73786 9.32394 9.65255 6.40925 13.2481 6.40925C16.8435 6.40925 19.7582 9.32394 19.7582 12.9195C19.7582 16.5149 16.8435 19.4296 13.2481 19.4296C9.65255 19.4296 6.73786 16.5149 6.73786 12.9195ZM13.2481 17.1453C10.9141 17.1453 9.02213 15.2534 9.02213 12.9195C9.02213 10.5855 10.9141 8.69352 13.2481 8.69352C15.582 8.69352 17.474 10.5855 17.474 12.9195C17.474 15.2534 15.582 17.1453 13.2481 17.1453Z" fill="#89B13B"/>
<path d="M20.0154 7.67335C20.8557 7.67335 21.5368 6.99226 21.5368 6.15204C21.5368 5.31183 20.8557 4.63069 20.0154 4.63069C19.1753 4.63069 18.4941 5.31183 18.4941 6.15204C18.4941 6.99226 19.1753 7.67335 20.0154 7.67335Z" fill="#89B13B"/>
<path fill-rule="evenodd" clip-rule="evenodd" d="M13.2481 0.241699C9.80498 0.241699 9.37325 0.256293 8.02103 0.317991C6.67164 0.379538 5.75005 0.593869 4.94365 0.907289C4.10998 1.23123 3.40297 1.66472 2.69813 2.36951C1.99333 3.07436 1.55984 3.78136 1.2359 4.61504C0.922482 5.42143 0.708151 6.34302 0.646604 7.69242C0.584907 9.04463 0.570312 9.47637 0.570312 12.9195C0.570312 16.3625 0.584907 16.7942 0.646604 18.1464C0.708151 19.4958 0.922482 20.4174 1.2359 21.2238C1.55984 22.0575 1.99333 22.7645 2.69813 23.4694C3.40297 24.1741 4.10998 24.6076 4.94365 24.9316C5.75005 25.245 6.67164 25.4593 8.02103 25.5209C9.37325 25.5826 9.80498 25.5972 13.2481 25.5972C16.6911 25.5972 17.1228 25.5826 18.4751 25.5209C19.8245 25.4593 20.746 25.245 21.5524 24.9316C22.3861 24.6076 23.0931 24.1741 23.798 23.4694C24.5028 22.7645 24.9363 22.0575 25.2602 21.2238C25.5736 20.4174 25.7879 19.4958 25.8495 18.1464C25.9112 16.7942 25.9258 16.3625 25.9258 12.9195C25.9258 9.47637 25.9112 9.04463 25.8495 7.69242C25.7879 6.34302 25.5736 5.42143 25.2602 4.61504C24.9363 3.78136 24.5028 3.07436 23.798 2.36951C23.0931 1.66472 22.3861 1.23123 21.5524 0.907289C20.746 0.593869 19.8245 0.379538 18.4751 0.317991C17.1228 0.256293 16.6911 0.241699 13.2481 0.241699ZM13.2481 2.52597C16.6331 2.52597 17.0341 2.53891 18.3709 2.5999C19.607 2.65626 20.2783 2.86279 20.725 3.03641C21.3168 3.26639 21.7391 3.54111 22.1827 3.98477C22.6264 4.42838 22.9011 4.8507 23.1311 5.44247C23.3047 5.8892 23.5112 6.56047 23.5676 7.79654C23.6286 9.13336 23.6415 9.53434 23.6415 12.9195C23.6415 16.3045 23.6286 16.7055 23.5676 18.0423C23.5112 19.2784 23.3047 19.9497 23.1311 20.3964C22.9011 20.9882 22.6264 21.4105 22.1827 21.8541C21.7391 22.2978 21.3168 22.5725 20.725 22.8025C20.2783 22.9761 19.607 23.1826 18.3709 23.239C17.0343 23.3 16.6334 23.3129 13.2481 23.3129C9.86271 23.3129 9.46182 23.3 8.12516 23.239C6.88909 23.1826 6.21781 22.9761 5.77108 22.8025C5.17932 22.5725 4.757 22.2978 4.31339 21.8541C3.86978 21.4105 3.59501 20.9882 3.36503 20.3964C3.19141 19.9497 2.98488 19.2784 2.92851 18.0423C2.86752 16.7055 2.85459 16.3045 2.85459 12.9195C2.85459 9.53434 2.86752 9.13336 2.92851 7.79654C2.98488 6.56047 3.19141 5.8892 3.36503 5.44247C3.59501 4.8507 3.86973 4.42838 4.31339 3.98477C4.757 3.54111 5.17932 3.26639 5.77108 3.03641C6.21781 2.86279 6.88909 2.65626 8.12516 2.5999C9.46197 2.53891 9.86296 2.52597 13.2481 2.52597Z" fill="#89B13B"/>
</svg>
